<svg xmlns="http://www.w3.org/2000/svg" width="157.492" height="151.262" viewBox="0 0 157.492 151.262">
  <g id="Group_27" data-name="Group 27" transform="translate(4 4)">
    <path id="Path_17" data-name="Path 17" d="M142.034,17V85.517H5V17" transform="translate(1.229 57.746)" fill="none" stroke="#000" stroke-linecap="round" stroke-linejoin="round" stroke-miterlimit="10" stroke-width="8"/>
    <line id="Line_3" data-name="Line 3" y2="68" transform="translate(56.305 75.059)" fill="none" stroke="#000" stroke-linecap="round" stroke-linejoin="round" stroke-miterlimit="10" stroke-width="8"/>
    <path id="Path_18" data-name="Path 18" d="M153.492,48.6H4L22.686,5H134.805Z" transform="translate(-4 -5)" fill="none" stroke="#000" stroke-linecap="round" stroke-linejoin="round" stroke-miterlimit="10" stroke-width="8"/>
    <path id="Path_19" data-name="Path 19" d="M36.915,49.373h0A24.988,24.988,0,0,1,12,24.458V12H61.831V24.458A24.988,24.988,0,0,1,36.915,49.373Z" transform="translate(37.831 31.602)" fill="none" stroke="#000" stroke-linecap="round" stroke-linejoin="round" stroke-miterlimit="10" stroke-width="8"/>
    <path id="Path_20" data-name="Path 20" d="M28.915,49.373h0A24.988,24.988,0,0,1,4,24.458V12H53.831V24.458A24.988,24.988,0,0,1,28.915,49.373Z" transform="translate(-4 31.602)" fill="none" stroke="#000" stroke-linecap="round" stroke-linejoin="round" stroke-miterlimit="10" stroke-width="8"/>
    <path id="Path_21" data-name="Path 21" d="M44.915,49.373h0A24.988,24.988,0,0,1,20,24.458V12H69.831V24.458A24.988,24.988,0,0,1,44.915,49.373Z" transform="translate(79.661 31.602)" fill="none" stroke="#000" stroke-linecap="round" stroke-linejoin="round" stroke-miterlimit="10" stroke-width="8"/>
    <line id="Line_4" data-name="Line 4" transform="translate(37.305 112.059)" fill="none" stroke="#000" stroke-linecap="round" stroke-linejoin="round" stroke-miterlimit="10" stroke-width="8"/>
  </g>
</svg>
