<svg id="shelf-shelves-icon" xmlns="http://www.w3.org/2000/svg" width="116.85" height="143.13" viewBox="0 0 116.85 143.13">
  <path id="Path_25" data-name="Path 25" d="M1.223,0h8.946a1.223,1.223,0,0,1,1.223,1.223V17.38h94.065V1.223A1.223,1.223,0,0,1,106.68,0h8.946a1.223,1.223,0,0,1,1.223,1.223V141.907a1.223,1.223,0,0,1-1.223,1.223H106.68a1.223,1.223,0,0,1-1.223-1.223v-9.575H11.393v9.575a1.223,1.223,0,0,1-1.223,1.223H1.223A1.223,1.223,0,0,1,0,141.907V1.223A1.223,1.223,0,0,1,1.223,0ZM40.992,103.221H33.211a3.4,3.4,0,0,0-3.39,3.39h0a3.4,3.4,0,0,0,3.39,3.39h7.781a3.4,3.4,0,0,0,3.39-3.39h0a3.4,3.4,0,0,0-3.39-3.39Zm42.658-3.553H75.869a3.4,3.4,0,0,0-3.39,3.39h0a3.4,3.4,0,0,0,3.39,3.39h7.781a3.4,3.4,0,0,0,3.39-3.39h0a3.4,3.4,0,0,0-3.39-3.39ZM75.869,55.437h7.781a3.4,3.4,0,0,1,3.39,3.39h0a3.4,3.4,0,0,1-3.39,3.39H75.869a3.4,3.4,0,0,1-3.39-3.39h0a3.4,3.4,0,0,1,3.39-3.39ZM33.211,51.872h7.781a3.4,3.4,0,0,1,3.39,3.39h0a3.4,3.4,0,0,1-3.39,3.39H33.211a3.4,3.4,0,0,1-3.39-3.39h0a3.386,3.386,0,0,1,3.39-3.39Zm72.246,69.066V85.969H11.393v34.97h7.083V98.34a4.281,4.281,0,0,1,1.107-2.854l.151-.175a4.251,4.251,0,0,1,3.029-1.258h28.68a4.3,4.3,0,0,1,4.287,4.287v22.6h5.405V94.775a4.3,4.3,0,0,1,4.287-4.287H94.1a4.3,4.3,0,0,1,4.287,4.287v26.163Zm-82.637,0H51.383V98.4H22.82v22.541Zm42.658,0H94.041V94.833H65.478v26.105Zm39.979-46.363V28.8H11.393v45.78h7.083V46.98a4.223,4.223,0,0,1,1.258-3.017v-.012a4.271,4.271,0,0,1,3.029-1.258h28.68a4.3,4.3,0,0,1,4.287,4.287v27.6h5.405V50.544a4.3,4.3,0,0,1,4.287-4.287H94.1a4.271,4.271,0,0,1,3.029,1.258l.151.175a4.258,4.258,0,0,1,1.107,2.854V74.576h7.071Zm-82.637,0H51.383V47.038H22.82V74.576Zm42.658,0H94.041V50.6H65.478V74.576Z" fill-rule="evenodd"/>
</svg>
