<svg xmlns="http://www.w3.org/2000/svg" width="136.869" height="135.944" viewBox="0 0 136.869 135.944">
  <g id="b157df274e911ea05da9a4dd08162e76" style="isolation: isolate">
    <path id="Path_1" data-name="Path 1" d="M128.683,104.153A119.11,119.11,0,0,0,116.5,96.6c-6.033-3.2-8.617-3.559-10.042-3.559-2.863,0-5.349,1.508-7.388,4.467a38.527,38.527,0,0,0-3.324,6.561,29.61,29.61,0,0,1-2.444,4.9c-1.369-.321-4.679-1.745-10.293-5.57A120.012,120.012,0,0,1,67.847,91.031a120.083,120.083,0,0,1-12.318-15.2c-3.827-5.625-5.237-8.948-5.558-10.315a28.709,28.709,0,0,1,4.874-2.457,38.332,38.332,0,0,0,6.536-3.336c2.947-2.038,4.455-4.537,4.455-7.412,0-1.424-.363-4.02-3.547-10.064a117.6,117.6,0,0,0-7.542-12.214,97.5,97.5,0,0,0-8.868-11.083C42,14.9,39.049,13.1,36.326,13.1c-6.662,0-14.511,9.8-16.745,12.8C16.69,29.739,10,39.705,10,49.086c0,8.766,5.824,20.087,10.712,28.043A194.649,194.649,0,0,0,46.2,109.443l3.226,3.238.042.042A193.568,193.568,0,0,0,81.687,138.3c7.933,4.9,19.217,10.748,27.96,10.748,9.357,0,19.287-6.714,23.128-9.6,2.989-2.247,12.765-10.12,12.765-16.806,0-2.75-1.788-5.7-5.81-9.59A95.46,95.46,0,0,0,128.683,104.153Zm6.257,22.5a46.111,46.111,0,0,1-7.332,6.63c-6.536,4.83-13.24,7.705-17.946,7.705-5.279,0-13.938-3.476-23.77-9.548a184.544,184.544,0,0,1-30.809-24.47l-3.156-3.155a185.872,185.872,0,0,1-24.4-30.9C21.48,63.058,18,54.376,18,49.086c0-4.718,2.877-11.446,7.681-17.993a45.736,45.736,0,0,1,6.62-7.356,12.806,12.806,0,0,1,3.883-2.568c1.452.684,6.005,4.718,12.486,14.14A111.522,111.522,0,0,1,55.25,46.07c2.137,4.076,2.5,5.765,2.57,6.156a4.968,4.968,0,0,1-1.606,1.27,40.96,40.96,0,0,1-4.553,2.178,38.138,38.138,0,0,0-5.754,2.876c-2.723,1.815-4.078,4.034-4.036,6.616.028,1.228.112,4.983,7.025,15.173a128.136,128.136,0,0,0,13.24,16.332l.07.07a127.921,127.921,0,0,0,16.284,13.289c10.153,6.937,13.9,7.021,15.125,7.035h.14c2.528,0,4.707-1.382,6.48-4.09a39.041,39.041,0,0,0,2.849-5.723,42.444,42.444,0,0,1,2.179-4.564,4.967,4.967,0,0,1,1.271-1.605c.391.056,2.081.433,6.131,2.568a109.185,109.185,0,0,1,10.726,6.6c9.4,6.5,13.421,11.069,14.092,12.521A12.449,12.449,0,0,1,134.94,126.654Z" transform="translate(-10 -13.1)"/>
    <path id="Path_2" data-name="Path 2" d="M491.925,332.134a2.929,2.929,0,0,0,3.394,2.387,17.016,17.016,0,0,1,12.43,2.5,15.028,15.028,0,0,1,6.634,9.98,2.944,2.944,0,0,0,2.891,2.429,3.355,3.355,0,0,0,.517-.042,2.935,2.935,0,0,0,2.374-3.406,20.846,20.846,0,0,0-9.19-13.875,22.844,22.844,0,0,0-16.689-3.378A2.943,2.943,0,0,0,491.925,332.134Z" transform="translate(-424.581 -284.353)"/>
    <path id="Path_3" data-name="Path 3" d="M495.4,194.883a32.7,32.7,0,0,1,23.882,4.816,29.164,29.164,0,0,1,12.849,19.361,2.944,2.944,0,0,0,2.891,2.429,3.362,3.362,0,0,0,.517-.042,2.932,2.932,0,0,0,2.374-3.406,34.994,34.994,0,0,0-15.39-23.255,38.535,38.535,0,0,0-28.128-5.7,2.94,2.94,0,0,0,1.005,5.793Z" transform="translate(-424.667 -163.992)"/>
    <path id="Path_4" data-name="Path 4" d="M548.157,95A55.526,55.526,0,0,0,523.7,58.076a61.4,61.4,0,0,0-44.8-9.059,2.941,2.941,0,0,0,1.02,5.793,55.544,55.544,0,0,1,40.557,8.18,49.7,49.7,0,0,1,21.913,33.026,2.944,2.944,0,0,0,2.891,2.429,3.356,3.356,0,0,0,.517-.042A2.936,2.936,0,0,0,548.157,95Z" transform="translate(-411.332 -43.154)"/>
  </g>
</svg>
