<svg xmlns="http://www.w3.org/2000/svg" width="137.034" height="137.063" viewBox="0 0 137.034 137.063">
  <path id="_10886806321581426690" data-name="10886806321581426690" d="M130.559,37.027,79.981,4.077a19.309,19.309,0,0,0-20.929,0L8.475,37.027A15.323,15.323,0,0,0,1,49.858v88.2H57.059V103.364H81.975v34.694h56.059v-88.2a15.323,15.323,0,0,0-7.475-12.831ZM125.576,125.6H94.432V90.906H44.6V125.6H13.458V49.858a3.052,3.052,0,0,1,1.619-2.429l50.578-32.95a7.1,7.1,0,0,1,7.35,0l50.578,32.95a3.052,3.052,0,0,1,1.62,2.429Z" transform="translate(-1 -0.995)"/>
</svg>
