<svg xmlns="http://www.w3.org/2000/svg" width="37.5" height="37.5" viewBox="0 0 37.5 37.5">
  <path id="_13880855881556105710" data-name="13880855881556105710" d="M18.75,0A18.75,18.75,0,1,0,37.5,18.75,18.75,18.75,0,0,0,18.75,0ZM9,15.53H13.25V28.3H9ZM13.53,11.58a2.207,2.207,0,0,0-2.376-2.205,2.212,2.212,0,1,0-.055,4.412h.027A2.216,2.216,0,0,0,13.53,11.58Zm10.152,3.65c2.8,0,4.892,1.825,4.892,5.747V28.3H24.325v-6.83c0-1.716-.615-2.886-2.153-2.886a2.325,2.325,0,0,0-2.18,1.552,2.9,2.9,0,0,0-.14,1.035V28.3H15.6s.056-11.569,0-12.767h4.25v1.808A4.219,4.219,0,0,1,23.682,15.23Z" fill="#fff" fill-rule="evenodd"/>
</svg>
