<svg id="_11028854961582994865" data-name="11028854961582994865" xmlns="http://www.w3.org/2000/svg" width="174" height="136.653" viewBox="0 0 174 136.653">
  <path id="Path_12" data-name="Path 12" d="M40.937,59.812c-3.324,1.38-6.39,3.146-7.624,6.838-.249.747-1.326,6.63-1.821,9.366a1.178,1.178,0,0,0,1.162,1.39H85.971a1.165,1.165,0,0,0,.587-.157,1.178,1.178,0,0,0,.573-1.233C86.638,73.28,85.56,67.4,85.31,66.65c-1.233-3.691-4.3-5.458-7.623-6.838-.425-.176-.854-.346-1.283-.513l-8.691-3.371a9.125,9.125,0,0,1-16.8,0L42.221,59.3C41.791,59.467,41.362,59.637,40.937,59.812Z" transform="translate(9.137 0.887)"/>
  <path id="Path_13" data-name="Path 13" d="M54.652,62.681a10.711,10.711,0,0,0,10.51-8.663L66.8,45.593a11.279,11.279,0,0,0-11.174-12.8H53.681a11.278,11.278,0,0,0-11.173,12.8l1.634,8.425A10.711,10.711,0,0,0,54.652,62.681Z" transform="translate(13.796 -8.973)"/>
  <path id="Path_14" data-name="Path 14" d="M149.734,119a9.075,9.075,0,0,0-4.892-6.586c-8.505-4.243-27.171-10.508-27.171-10.508V95.748l.52-.392a17.829,17.829,0,0,0,6.768-11.334l.106-.654h.508a6.886,6.886,0,0,0,6.374-4.291,7.476,7.476,0,0,0,.937-3.631,6.9,6.9,0,0,0-.49-2.556,3.572,3.572,0,0,0-1.381-2.222l-1.723-1.046.429-1.869c3.109-13.561-7.4-25.774-21.5-26.112-.343,0-.684-.01-1.02,0-.339-.008-.677,0-1.02,0-14.107.338-24.612,12.551-21.5,26.112l.429,1.869-1.722,1.045A3.575,3.575,0,0,0,82,72.891a6.949,6.949,0,0,0-.49,2.556,7.505,7.505,0,0,0,.937,3.632,6.892,6.892,0,0,0,6.376,4.29h.508l.1.654a17.822,17.822,0,0,0,6.77,11.334l.52.392v6.162s-18.665,6.265-27.17,10.508A9.069,9.069,0,0,0,64.664,119a197.661,197.661,0,0,0-1.715,22.855h88.5A197.643,197.643,0,0,0,149.734,119Z" transform="translate(22.552 -5.205)"/>
  <path id="Path_15" data-name="Path 15" d="M109.265,106.944a27.982,27.982,0,0,1-2.362-4.605,16.6,16.6,0,0,1-1.782-1.049H11.878V27.756a2.167,2.167,0,0,1,1.868-2.38H129.141a2.177,2.177,0,0,1,1.875,2.38V42.72c.159-.006.317-.02.477-.024l.1,0c.4-.006.783-.009,1.157,0s.751,0,1.132,0l.125,0a34.344,34.344,0,0,1,5.89.658V24.36a8.267,8.267,0,0,0-8.27-8.268H11.267A8.267,8.267,0,0,0,3,24.362V107.47a8.273,8.273,0,0,0,8.268,8.254H52.51l-7.7,19.662a1.954,1.954,0,0,0,1.818,2.671H79.379c.271-3.409.64-6.9,1.141-9.827a18.972,18.972,0,0,1,10.2-13.731C95.55,112.092,103.139,109.174,109.265,106.944Z" transform="translate(-2.999 -16.092)"/>
</svg>
