<svg id="Product_delivery" xmlns="http://www.w3.org/2000/svg" width="144" height="150.383" viewBox="0 0 144 150.383">
  <path id="Path_6" data-name="Path 6" d="M23.259,5,6.273,28.775a1.891,1.891,0,0,0,1.537,2.99l48.016.046L75.95,3.433H26.3A3.744,3.744,0,0,0,23.259,5Z" transform="translate(-5.921 -3.433)"/>
  <path id="Path_7" data-name="Path 7" d="M102.321,28.932,85.224,5a3.746,3.746,0,0,0-3.047-1.568H32.56L52.623,31.876l48.157.046a1.891,1.891,0,0,0,1.541-2.99Z" transform="translate(41.327 -3.433)"/>
  <path id="Path_8" data-name="Path 8" d="M46.468,27.834,33.21,9.039V66.92H81.024a4.854,4.854,0,0,0,4.854-4.854V29.455L49.523,29.42a3.75,3.75,0,0,1-3.055-1.586Z" transform="translate(42.479 6.51)"/>
  <path id="Path_9" data-name="Path 9" d="M47.829,29.376h-.006l-36.3.03V62.082a4.854,4.854,0,0,0,4.854,4.854H64.191V9.03L50.883,27.8A3.75,3.75,0,0,1,47.829,29.376Z" transform="translate(4.01 6.494)"/>
  <path id="Path_10" data-name="Path 10" d="M28.587,37.15H10.4A2.893,2.893,0,0,0,7.5,40.044v62.078a2.894,2.894,0,0,0,2.894,2.894H28.587A6.309,6.309,0,0,0,34.9,98.707V43.458a6.308,6.308,0,0,0-6.309-6.308Z" transform="translate(-2.2 45.367)"/>
  <path id="Path_11" data-name="Path 11" d="M120.619,42.822a10.551,10.551,0,0,0-8.833-4.759h-7.128a15.392,15.392,0,0,0-14.272,9.549,15.948,15.948,0,0,1-2.84,4.491A23.238,23.238,0,0,1,69.009,62.639H47.9a3.744,3.744,0,0,1,0-7.489H68.909a14.085,14.085,0,0,0,7.556-2.431v-.127A14.475,14.475,0,0,0,61.991,38.062H46.5a21.458,21.458,0,0,0-15.246,6.3l-.4.394a20.1,20.1,0,0,1-10.778,5.582V91.694h56.5A42.8,42.8,0,0,0,115.938,65.77L121.5,52.815a10.545,10.545,0,0,0-.884-9.993Z" transform="translate(20.102 46.985)"/>
</svg>
