<svg xmlns="http://www.w3.org/2000/svg" width="166.183" height="139.366" viewBox="0 0 166.183 139.366">
  <g id="self-storage-warehouse-computer-icons-box-warehouse-d69cf4f290e028d6c7a9641ad2895270" transform="translate(0 0)">
    <path id="Path_26" data-name="Path 26" d="M82.4-2310.9c-.163.036-.434.1-.6.157-.289.09-78.027,35.573-78.878,36a4.471,4.471,0,0,0-1.309.935A5.169,5.169,0,0,0,.2-2271.047a46.078,46.078,0,0,0-.078,5.294L.144-2261l.2.573a4.483,4.483,0,0,0,3,2.931,21.171,21.171,0,0,0,3.932.126l3.576.024.018,38.637.018,38.637.127.573a9.959,9.959,0,0,0,3.829,6.073,9.6,9.6,0,0,0,3.1,1.5c1.092.3,1.574.332,5.439.332h3.57v-64.344H139.477v64.351l3.727-.024a29.844,29.844,0,0,0,4.233-.127,10.1,10.1,0,0,0,7.972-8.027l.139-.663.018-38.456.012-38.456,3.576-.024a21.171,21.171,0,0,0,3.932-.126,4.471,4.471,0,0,0,3-2.931l.2-.573.018-4.752a46.079,46.079,0,0,0-.078-5.294,5.069,5.069,0,0,0-2.955-3.817c-.2-.09-17.772-8.117-39.047-17.838s-38.908-17.766-39.179-17.88A4.921,4.921,0,0,0,82.4-2310.9ZM52.989-2268a1.128,1.128,0,0,1,.621.6c.109.229.115.495.115,4.674s-.006,4.444-.115,4.674a1.127,1.127,0,0,1-.621.6c-.2.078-1.568.09-12.664.084-9.371,0-12.483-.018-12.622-.072a1.117,1.117,0,0,1-.6-.489l-.157-.235v-9.106l.151-.253a1.046,1.046,0,0,1,.627-.512c.084-.03,5.753-.054,12.6-.054C51.421-2268.086,52.79-2268.074,52.989-2268Zm42.949.042a1.648,1.648,0,0,1,.446.368l.187.235.018,4.547c.012,4.384.012,4.553-.1,4.776a1.176,1.176,0,0,1-.621.585c-.2.078-1.574.09-12.67.09H70.754l-.265-.139a1.528,1.528,0,0,1-.446-.362l-.187-.235-.018-4.469c-.012-2.46,0-4.565.018-4.674a1.271,1.271,0,0,1,.663-.742c.229-.108.778-.114,12.694-.114H95.672Zm42.924-.006a1.129,1.129,0,0,1,.44.4l.175.277v4.5c0,3.04-.018,4.565-.066,4.68a1.268,1.268,0,0,1-.627.627c-.235.108-.7.114-12.634.114-8.34,0-12.465-.018-12.616-.06a1.164,1.164,0,0,1-.718-.633c-.1-.229-.115-.5-.115-4.662a31.4,31.4,0,0,1,.09-4.643,1.128,1.128,0,0,1,.6-.622c.229-.108.718-.114,12.718-.114H138.6Z" transform="translate(-0.122 2310.96)"/>
    <path id="Path_27" data-name="Path 27" d="M891.1-977.934a2.772,2.772,0,0,0-2.111,2.1c-.09.476-.084,22.083.006,22.512a2.717,2.717,0,0,0,2.2,2.1c.223.036,4.438.06,11.186.06,11.807,0,11.295.012,11.952-.344a2.747,2.747,0,0,0,1.375-2.02c.078-.591.078-21.516,0-22.107a2.678,2.678,0,0,0-2.056-2.273,36.371,36.371,0,0,0-4.5-.09H905.03v5.367h-5.367V-978l-4.143.006C893.234-977.988,891.25-977.964,891.1-977.934Z" transform="translate(-835.325 1058.383)"/>
    <path id="Path_28" data-name="Path 28" d="M1424.074-977.986a2.673,2.673,0,0,0-1.99,2.255c-.078.591-.078,21.516,0,22.107a2.731,2.731,0,0,0,1.375,2.02c.657.356.145.344,11.952.344,6.748,0,10.963-.024,11.186-.06a2.717,2.717,0,0,0,2.2-2.1c.048-.229.066-3.449.066-11.277,0-9.619-.012-11.005-.1-11.349a2.714,2.714,0,0,0-1.743-1.906c-.283-.109-.555-.115-4.6-.133l-4.3-.018v5.373h-5.367v-5.367l-4.143.006A28.8,28.8,0,0,0,1424.074-977.986Z" transform="translate(-1336.279 1058.477)"/>
    <path id="Path_29" data-name="Path 29" d="M623.85-443.873a2.683,2.683,0,0,0-1.785,2.068c-.084.47-.09,21.794-.006,22.318a2.842,2.842,0,0,0,1.327,1.918c.621.362-.048.344,12.031.344s11.373.018,12.049-.344a3.19,3.19,0,0,0,1.085-1.176,3.6,3.6,0,0,0,.223-.681c.048-.265.06-3.317.048-11.428l-.018-11.066-.133-.332a2.774,2.774,0,0,0-1.689-1.628c-.38-.115-.555-.121-4.637-.121H638.1v5.307h-5.367V-444h-4.263C624.357-443.994,624.188-443.994,623.85-443.873Z" transform="translate(-584.497 556.585)"/>
    <path id="Path_30" data-name="Path 30" d="M1157.9-444.01a2.709,2.709,0,0,0-1.779,1.773c-.121.38-.121.6-.121,11.536,0,11.132,0,11.156.127,11.524a2.627,2.627,0,0,0,1.906,1.767c.3.078,1.779.09,11.337.09,7.809,0,11.078-.018,11.307-.066a2.736,2.736,0,0,0,1.851-1.5l.217-.458.018-11.217c.018-12.537.048-11.615-.4-12.32a2.711,2.711,0,0,0-1.146-1l-.4-.187-4.384-.018-4.39-.018v5.313h-5.307v-5.307l-4.294.006A44.454,44.454,0,0,0,1157.9-444.01Z" transform="translate(-1086.296 556.679)"/>
    <path id="Path_31" data-name="Path 31" d="M1690.966-443.879a2.8,2.8,0,0,0-1.677,1.616l-.139.344-.018,11.066c-.012,8.111,0,11.162.048,11.428a2.728,2.728,0,0,0,1.96,2.111c.314.078,1.646.09,11.4.09,10.541,0,11.054-.006,11.44-.109a2.7,2.7,0,0,0,1.918-2.159c.084-.507.078-21.758-.006-22.276a2.656,2.656,0,0,0-1.8-2.111c-.35-.115-.5-.121-4.619-.121h-4.251v5.307h-5.367V-444l-4.264.006C1691.581-443.994,1691.3-443.988,1690.966-443.879Z" transform="translate(-1587.274 556.585)"/>
  </g>
</svg>
