<svg xmlns="http://www.w3.org/2000/svg" width="149.082" height="148.014" viewBox="0 0 149.082 148.014">
  <path id="product-replacement-icon" d="M145.817,5.8a2.426,2.426,0,0,1,1.517.291,2.426,2.426,0,0,1,1.4,2.16l.352,47.983a2.426,2.426,0,0,1-1.153,2.111L128.383,70a2.354,2.354,0,0,1-1.407.461h-.388L75.814,64.785a2.426,2.426,0,0,1-2.257-2.366v-48.8a2.427,2.427,0,0,1,1.42-2.208L100.455.193a2.426,2.426,0,0,1,1.213-.17L145.732,5.8ZM49.973,85.191,36.081,93.1l16.888,2.147,12.7-8L50.009,85.191ZM32,97.323l-.7,20.516-7.607-5.18-7.619,4.307,1.553-21.486L4.744,93.853v44L51.04,143V99.762l-19-2.426ZM21.389,91.257l13.552-8.032-6.709-.886L11.028,89.9l10.4,1.335ZM55.808,99.07v42.463l15.008-8.954-.34-42.8ZM54.85,147.6a2.427,2.427,0,0,1-1.468.412,2.087,2.087,0,0,1-.388,0L2.257,142.346A2.426,2.426,0,0,1,0,139.919V91.172A2.354,2.354,0,0,1,1.42,88.964L26.9,77.742a2.426,2.426,0,0,1,1.213-.17l44.137,5.775a2.681,2.681,0,0,1,2.924,2.426l.34,47.983a2.342,2.342,0,0,1-1.14,2.123L54.826,147.539Zm35.293-14.462L97.8,94.217l7.752,11.708c16.718-6.721,26.109-17.786,27.5-34.819,13.734,24.01,5.4,45.544-12.011,58.15l7.922,11.938-38.823-8.056ZM61.523,12.665,53.867,51.573,46.1,39.877C29.384,46.586,19.994,57.651,18.6,74.7,4.853,50.675,13.2,29.116,30.61,16.547L22.687,4.609,61.51,12.665Zm62.044-5.023-13.916,7.91L126.539,17.7l12.69-8ZM105.611,19.774l-.7,20.528-7.619-5.12-7.607,4.246,1.553-21.474L78.3,16.3v44l46.3,5.2v-43.3l-18.987-2.426ZM95,13.708,108.5,5.7l-6.7-.849-17.2,7.5L95,13.672Zm34.346,7.85V64.02l15.032-9.038-.3-42.73-14.7,9.269Z" transform="translate(0 -0.006)"/>
</svg>
