<svg xmlns="http://www.w3.org/2000/svg" width="257.886" height="114.118" viewBox="0 0 257.886 114.118">
  <g id="Group_108" data-name="Group 108" transform="translate(-1074.849 -3338.941)">
    <path id="_1889240431595988886" data-name="1889240431595988886" d="M168.178,71.288a5.885,5.885,0,0,1,6.229-6.229h22.424a30.82,30.82,0,0,0-28.653-18.686H152.606l-21.8-26.161A33.115,33.115,0,0,0,106.513,9H59.174C47.339,9,36.75,15.852,31.144,26.441L21.178,46.373H18.686A18.353,18.353,0,0,0,0,65.059V89.974a12.494,12.494,0,0,0,12.458,12.458h6.852C21.8,113.021,31.767,121.118,43.6,121.118s21.178-8.1,24.292-18.686h51.7c2.492,10.589,12.458,18.686,24.292,18.686s21.178-8.1,24.292-18.686h18.686a12.494,12.494,0,0,0,12.458-12.458V77.517H174.407A5.885,5.885,0,0,1,168.178,71.288ZM43.6,108.661A12.458,12.458,0,1,1,56.059,96.2,12.494,12.494,0,0,1,43.6,108.661ZM58.551,46.373H34.881l7.475-14.326A18.757,18.757,0,0,1,59.174,21.458H71.008Zm13.7,0L84.712,21.458h21.8a18.623,18.623,0,0,1,14.326,6.852l14.949,18.064Zm71.008,62.288A12.458,12.458,0,1,1,155.72,96.2,12.494,12.494,0,0,1,143.263,108.661Z" transform="translate(1074.849 3329.941)"/>
    <g id="bike-motorcycle-icon" transform="translate(1195.608 3360.07)">
      <g id="Path_23" data-name="Path 23" transform="translate(0 0.023)" fill-rule="evenodd">
        <path d="M 115.079948425293 91.96658325195312 C 112.2385711669922 91.96658325195312 109.4818801879883 91.41007995605469 106.8864593505859 90.31251525878906 C 104.3799667358398 89.25257110595703 102.1292419433594 87.73529815673828 100.1967849731445 85.8028564453125 C 98.26435089111328 83.87040710449219 96.74707794189453 81.61967468261719 95.6871337890625 79.11318969726562 C 94.58956909179688 76.51776885986328 94.03305816650391 73.76107788085938 94.03305816650391 70.91969299316406 C 94.03305816650391 67.53533172607422 94.85417175292969 64.17222595214844 96.40760803222656 61.19393157958984 C 97.77893829345703 58.56479644775391 99.72084045410156 56.22593307495117 102.0538177490234 54.38511657714844 L 97.70103454589844 45.82768630981445 L 87.77848052978516 75.66689300537109 L 87.55088043212891 76.35134887695312 L 86.82956695556641 76.35134887695312 L 82.98989105224609 76.35134887695312 C 82.55723571777344 78.4779052734375 81.85184478759766 80.23365020751953 80.89044189453125 81.57513427734375 C 79.69158935546875 83.24855041503906 78.10507965087891 84.33071136474609 76.17507934570312 84.79144287109375 C 75.70359039306641 84.90369415283203 75.09786224365234 84.95820617675781 74.32271575927734 84.95822143554688 C 71.60133361816406 84.95831298828125 67.31649780273438 84.27709197998047 64.18785858154297 83.77971649169922 L 64.074462890625 83.76168060302734 C 63.12160491943359 83.60633087158203 62.24089431762695 83.47142028808594 61.65422439575195 83.39091491699219 L 49.91917419433594 81.81732940673828 C 49.36394119262695 82.96267700195312 48.19857406616211 83.71675109863281 46.8868408203125 83.71675109863281 C 46.70691299438477 83.71676635742188 46.52500534057617 83.70218658447266 46.34616851806641 83.67343902587891 L 39.198486328125 82.50234985351562 C 38.41466903686523 83.65486145019531 37.50343322753906 84.74243927001953 36.48311233520508 85.74254608154297 C 34.52202224731445 87.66265869140625 32.2360954284668 89.17051696777344 29.68842315673828 90.22462463378906 C 27.05349540710449 91.31484222412109 24.25729560852051 91.86762237548828 21.37751388549805 91.86762237548828 C 18.49896812438965 91.86762237548828 15.70411396026611 91.31480407714844 13.07054996490479 90.22454833984375 C 10.5273323059082 89.17169189453125 8.24044132232666 87.66420745849609 6.273368835449219 85.74398803710938 C 4.303822994232178 83.81547546386719 2.757914066314697 81.57203674316406 1.677459478378296 79.07492828369141 C 0.5575504302978516 76.48665618896484 -0.01028593443334103 73.73915100097656 -0.01028593443334103 70.90871429443359 C -0.01028593443334103 68.07827758789062 0.5575504302978516 65.33074951171875 1.677459478378296 62.74245834350586 C 2.757914066314697 60.2453498840332 4.303822994232178 58.00193023681641 6.27227783203125 56.07449340820312 C 8.232986450195312 54.15475082397461 10.51891422271729 52.64689636230469 13.06660461425781 51.59276962280273 C 15.7015323638916 50.50256729125977 18.49771499633789 49.94978713989258 21.37751388549805 49.94978713989258 C 24.25605964660645 49.94978713989258 27.0509147644043 50.50258636474609 29.68447685241699 51.59285736083984 C 32.22767639160156 52.64571380615234 34.51458740234375 54.1531867980957 36.48165893554688 56.07342147827148 C 38.45118713378906 58.00193023681641 39.99709701538086 60.2453498840332 41.07754898071289 62.74245834350586 C 42.19746017456055 65.33074951171875 42.76529693603516 68.07827758789062 42.76529693603516 70.90871429443359 C 42.76529693603516 71.25956726074219 42.75539779663086 71.61402893066406 42.73529815673828 71.97867584228516 L 48.28046798706055 73.51551055908203 C 42.98373031616211 57.41956329345703 32.9536018371582 47.88678741455078 21.16567802429199 47.88678741455078 C 16.25447845458984 47.88678741455078 11.42422294616699 49.69424057006836 7.564695835113525 52.9761848449707 L 7.279077529907227 53.21907806396484 L 6.904186725616455 53.21431350708008 L -0.01270411629229784 53.12635040283203 L -1.486158609390259 53.10760498046875 L -0.9245041012763977 51.74525833129883 C 0.8238481879234314 47.50455856323242 4.523951053619385 44.1978874206543 9.853111267089844 42.07875061035156 C 9.464366912841797 41.92609786987305 9.082134246826172 41.77129745483398 8.704556465148926 41.61365127563477 C 8.521154403686523 41.54838943481445 8.35599422454834 41.46088409423828 8.201343536376953 41.34710311889648 C 7.729323863983154 41.01389312744141 7.413551807403564 40.51842498779297 7.311368465423584 39.94993209838867 C 7.208277702331543 39.37635040283203 7.334877490997314 38.79620361328125 7.66784143447876 38.31634902954102 L 11.27975559234619 33.11255645751953 C 11.68899440765381 32.49821472167969 12.37492752075195 32.13195037841797 13.11780452728271 32.13195037841797 C 13.17164134979248 32.13195037841797 13.22620487213135 32.13393020629883 13.27998638153076 32.13787841796875 L 13.28567790985107 32.1382942199707 L 13.29136848449707 32.13876724243164 L 26.11210441589355 33.22451400756836 C 29.88682174682617 33.28555679321289 32.58828735351562 34.0428581237793 35.44818496704102 34.8444938659668 C 36.56655120849609 35.15966033935547 37.8780403137207 35.52336883544922 39.30862426757812 35.85607528686523 C 42.60447692871094 36.61762237548828 45.28924179077148 37.00796890258789 47.75633239746094 37.08416748046875 C 48.06920623779297 37.09422302246094 48.38120651245117 37.09929656982422 48.68491363525391 37.09929656982422 C 51.11156463623047 37.09929656982422 53.30443954467773 36.78491592407227 55.38102340698242 36.13868713378906 C 56.27706146240234 35.34869766235352 57.1247673034668 34.64568328857422 57.96716690063477 33.99382400512695 C 58.93913269042969 33.23411178588867 59.95615005493164 32.50344085693359 61.07249450683594 31.76300430297852 C 64.17249298095703 29.69633102416992 67.17063903808594 28.19080352783203 70.23627471923828 27.16171264648438 C 73.43826293945312 26.09438514709473 76.61724090576172 25.57585906982422 79.95685577392578 25.57585906982422 C 80.15225982666016 25.57585906982422 80.35082244873047 25.57771301269531 80.54705810546875 25.58135032653809 C 82.39187622070312 25.61844444274902 84.14752197265625 25.85369110107422 85.78605651855469 26.28228378295898 L 84.39569854736328 25.23891258239746 L 74.81020355224609 25.23891258239746 C 73.11278533935547 25.23891258239746 71.73184204101562 23.85796737670898 71.73184204101562 22.16054916381836 C 71.73184204101562 20.46313095092773 73.11278533935547 19.08216857910156 74.81020355224609 19.08216857910156 L 82.94842529296875 19.08216857910156 L 82.94842529296875 11.87071800231934 C 82.49690246582031 12.59211826324463 81.69632720947266 13.06880283355713 80.79480743408203 13.06887722015381 C 80.74002075195312 13.06887722015381 80.68438720703125 13.06709480285645 80.62946319580078 13.06356811523438 C 79.23013305664062 12.97271347045898 78.16527557373047 11.76133155822754 78.25491333007812 10.36314964294434 L 78.82669830322266 1.357494950294495 C 78.91342163085938 0.02202228084206581 80.02696990966797 -1.022959589958191 81.36187744140625 -1.022959589958191 C 81.41667938232422 -1.022959589958191 81.47229766845703 -1.021177768707275 81.52715301513672 -1.017650485038757 C 82.92649841308594 -0.9267958998680115 83.9913330078125 0.2846041023731232 83.90167999267578 1.682785868644714 L 83.67658996582031 5.18135929107666 L 84.30901336669922 5.566834449768066 L 84.68488311767578 5.788500785827637 C 84.76669311523438 5.82909631729126 84.83368682861328 5.87463903427124 84.88632202148438 5.916117668151855 C 85.94895935058594 6.533540725708008 87.03478240966797 7.204946994781494 87.69153594970703 9.201986312866211 C 87.81587982177734 9.575058937072754 87.90884399414062 9.994367599487305 87.97449493408203 10.48009490966797 L 87.97542572021484 10.48691272735596 L 87.97624206542969 10.49374961853027 C 88.02842712402344 10.92425346374512 88.04935455322266 11.36482238769531 88.03849792480469 11.80337619781494 L 88.03849792480469 20.2963924407959 L 89.09203338623047 21.08510780334473 C 89.16127014160156 20.86672210693359 89.26633453369141 20.65571022033691 89.40851593017578 20.46071243286133 L 89.4124755859375 20.45529556274414 L 89.41649627685547 20.44993209838867 C 89.455810546875 20.39749908447266 89.50760650634766 20.32842254638672 89.57415008544922 20.25723075866699 L 93.26223754882812 15.95629501342773 L 93.26395416259766 15.95429515838623 L 93.26567840576172 15.95231342315674 C 93.68504333496094 15.46842193603516 94.29145812988281 15.19089508056641 94.92940521240234 15.19089508056641 C 95.45069885253906 15.19089508056641 95.95442199707031 15.37865829467773 96.34780120849609 15.7196044921875 L 96.37474822998047 15.74294948577881 L 96.38758850097656 15.75578594207764 L 99.81391143798828 18.5729866027832 C 100.7321548461914 19.33154678344727 100.8769760131836 20.68055725097656 100.1515502929688 21.60795211791992 L 100.1170043945312 21.65973091125488 L 100.0734558105469 21.7093677520752 L 96.60911560058594 25.6580982208252 C 97.16524505615234 25.81880760192871 97.64089202880859 26.19391632080078 97.92713928222656 26.71677589416504 L 97.95079040527344 26.75227737426758 L 97.97525787353516 26.79898643493652 L 98.86397552490234 28.49561882019043 C 99.85910034179688 27.27724075317383 101.1876983642578 26.35460662841797 102.4002227783203 25.51258659362793 L 102.4242248535156 25.49591255187988 C 102.7405624389648 25.27445983886719 103.0708160400391 25.04329681396484 103.3485565185547 24.84037399291992 C 104.6855010986328 23.84725379943848 105.9602813720703 23.1928596496582 107.1373519897461 22.89547729492188 C 107.6628570556641 22.76034927368164 108.1858978271484 22.6912956237793 108.6878204345703 22.6912956237793 C 109.4831314086914 22.6912956237793 110.2325134277344 22.86222267150879 110.9151306152344 23.19933128356934 L 110.9195709228516 23.20151329040527 L 110.9239654541016 23.20374870300293 C 112.0506210327148 23.77404022216797 112.8948745727539 24.73573112487793 113.4332962036133 26.06211280822754 C 113.8978805541992 27.20471382141113 114.1335296630859 28.60414886474609 114.1335296630859 30.22107696533203 L 114.1335296630859 34.59774780273438 C 114.1335296630859 34.66414260864258 114.1335296630859 34.76663970947266 114.117546081543 34.88364410400391 C 113.9845504760742 36.91674041748047 113.4994964599609 38.51771545410156 112.6756057739258 39.64236831665039 C 112.1568222045898 40.34740447998047 111.5140609741211 40.87625885009766 110.763916015625 41.21596908569336 C 110.1410446166992 41.49802398681641 109.4547653198242 41.64102172851562 108.7241668701172 41.64104080200195 C 108.6281661987305 41.64104080200195 108.5298614501953 41.63856887817383 108.4320068359375 41.63365936279297 C 107.4664688110352 41.58127593994141 106.4341125488281 41.27853775024414 105.3451080322266 40.73017883300781 L 110.5384140014648 50.3519287109375 C 112.0218811035156 50.03378295898438 113.5460205078125 49.87278747558594 115.079948425293 49.87278747558594 C 117.9213333129883 49.87278747558594 120.6780242919922 50.42929458618164 123.2734451293945 51.52685928344727 C 125.7799301147461 52.5868034362793 128.0306549072266 54.10407638549805 129.9631195068359 56.03651428222656 C 131.8955535888672 57.96896743774414 133.4128265380859 60.21969604492188 134.4727630615234 62.7261848449707 C 135.5703277587891 65.32162475585938 136.1268463134766 68.07831573486328 136.1268463134766 70.91969299316406 C 136.1268463134766 73.76107788085938 135.5703277587891 76.51776885986328 134.4727630615234 79.11318969726562 C 133.4128265380859 81.61967468261719 131.8955535888672 83.87040710449219 129.9631195068359 85.8028564453125 C 128.0306549072266 87.73529815673828 125.7799301147461 89.25257110595703 123.2734451293945 90.31251525878906 C 120.6780242919922 91.41007995605469 117.9213333129883 91.96658325195312 115.079948425293 91.96658325195312 Z M 105.9087600708008 78.56789398193359 C 107.7415008544922 80.77919006347656 110.2866516113281 82.23796081542969 113.1178283691406 82.69819641113281 L 113.2701721191406 76.57935333251953 C 112.6391906738281 76.32006072998047 112.0544662475586 75.95542907714844 111.5428771972656 75.50088500976562 L 105.9087600708008 78.56789398193359 Z M 117.6447448730469 76.67942810058594 L 117.4952697753906 82.61736297607422 C 120.1178436279297 82.08385467529297 122.4880752563477 80.67382049560547 124.2197799682617 78.61475372314453 L 119.4750061035156 75.62454986572266 C 118.9275665283203 76.08312225341797 118.3087997436523 76.43950653076172 117.6447448730469 76.67942810058594 Z M 23.30570793151855 79.91090393066406 L 23.24075889587402 82.55607604980469 L 23.27682304382324 82.55156707763672 C 23.28938674926758 82.55000305175781 23.31816864013672 82.54474639892578 23.34356880187988 82.54011535644531 C 23.4030590057373 82.52927398681641 23.47711372375488 82.51578521728516 23.5653133392334 82.50598907470703 L 23.58503913879395 82.50379180908203 C 23.61767196655273 82.49734497070312 23.66670608520508 82.48509216308594 23.70782279968262 82.47482299804688 L 23.74651336669922 82.46514892578125 L 23.78629493713379 82.45847320556641 L 23.81871032714844 82.45307159423828 C 23.87362861633301 82.44052124023438 23.92296600341797 82.43126678466797 23.96431350708008 82.42351531982422 C 23.99315071105957 82.41811370849609 24.02296829223633 82.41251373291016 24.03802299499512 82.40875244140625 L 24.06920623779297 82.40093994140625 C 24.13215255737305 82.3836669921875 24.1883430480957 82.37162780761719 24.23040580749512 82.36262512207031 C 24.24316596984863 82.35987854003906 24.25597763061523 82.357421875 24.26875495910645 82.35440063476562 L 24.30542373657227 82.34218597412109 L 24.34175109863281 82.330078125 L 24.37891387939453 82.32078552246094 C 24.44955825805664 82.30312347412109 24.52234649658203 82.28491973876953 24.58080291748047 82.26872253417969 L 24.62433242797852 82.25421905517578 L 24.64484214782715 82.24738311767578 L 24.66562271118164 82.24143981933594 L 24.71422386169434 82.227783203125 C 24.73431205749512 82.22219085693359 24.76206207275391 82.21444702148438 24.78068542480469 82.20874786376953 L 24.96807861328125 82.11496734619141 L 25.05869483947754 82.11496734619141 C 25.08403587341309 82.10661315917969 25.1108226776123 82.09795379638672 25.13883972167969 82.08939361572266 L 25.19413185119629 82.06865692138672 L 25.23176956176758 82.05455017089844 L 25.27042388916016 82.04349517822266 C 25.28933143615723 82.03769683837891 25.34307861328125 82.01465606689453 25.38233184814453 81.99785614013672 L 25.42047691345215 81.98151397705078 L 25.45984077453613 81.9683837890625 L 25.52582359313965 81.94638824462891 C 25.55289649963379 81.93734741210938 25.56353187561035 81.93280029296875 25.58176803588867 81.92367553710938 L 25.62878608703613 81.90016937255859 L 25.67800521850586 81.8817138671875 L 25.74667739868164 81.85596466064453 C 25.78857231140137 81.83845520019531 25.82825469970703 81.82303619384766 25.86798667907715 81.80776977539062 C 25.89061546325684 81.79904937744141 25.91332626342773 81.79050445556641 25.93749237060547 81.78031921386719 L 26.0298957824707 81.7392578125 L 26.03593254089355 81.73658752441406 L 26.04200553894043 81.73398590087891 L 26.16873931884766 81.67966461181641 L 26.23073196411133 81.64867401123047 L 26.42869567871094 81.54971313476562 L 26.44515037536621 81.54147338867188 L 26.46189498901367 81.53385925292969 L 26.56641006469727 81.48633575439453 L 26.65473937988281 81.44217681884766 C 26.69843101501465 81.41757202148438 26.73660659790039 81.39848327636719 26.76398658752441 81.38480377197266 C 26.77106094360352 81.38125610351562 26.77817916870117 81.3778076171875 26.78525161743164 81.37410736083984 L 26.79684066772461 81.36716461181641 L 26.81482315063477 81.35735321044922 L 26.93578720092773 81.29136657714844 L 27.04300498962402 81.23289489746094 C 27.09446716308594 81.20307922363281 27.13970184326172 81.18045043945312 27.17094993591309 81.16484069824219 C 27.1779613494873 81.16133880615234 27.18501091003418 81.15791320800781 27.1920337677002 81.15423583984375 L 27.21896934509277 81.13807678222656 L 27.23708724975586 81.12902069091797 L 27.23982238769531 81.12740325927734 C 27.26938819885254 81.10976409912109 27.3161735534668 81.08186340332031 27.37635231018066 81.05243682861328 L 27.42749786376953 81.02175903320312 L 27.53753280639648 80.95172882080078 L 27.54858589172363 80.94470977783203 L 27.55982398986816 80.93796539306641 L 27.67778587341309 80.8671875 L 27.70430183410645 80.85128021240234 L 27.81664085388184 80.77638244628906 L 27.84533309936523 80.75725555419922 L 27.87527847290039 80.74016571044922 L 27.91362953186035 80.71825408935547 C 27.93455696105957 80.70395660400391 27.95538520812988 80.69007873535156 27.97603034973145 80.67642211914062 L 23.30570793151855 79.91090393066406 Z M 18.71503448486328 82.42019653320312 C 18.76573181152344 82.42967224121094 18.80898094177246 82.44010162353516 18.84207725524902 82.44807434082031 C 18.8446216583252 82.44869232177734 18.8471794128418 82.44932556152344 18.84975242614746 82.44995880126953 L 18.94478225708008 79.19844818115234 L 12.58053588867188 78.15316009521484 L 12.24642467498779 78.33479309082031 L 12.24755001068115 78.33629608154297 C 12.25552749633789 78.34691619873047 12.26321697235107 78.35773468017578 12.27184009552002 78.36840057373047 C 12.33792591094971 78.43544769287109 12.38473033905029 78.49620819091797 12.41793441772461 78.54094696044922 C 12.46060848236084 78.58971405029297 12.49251461029053 78.63268280029297 12.51639652252197 78.66510772705078 C 12.52995872497559 78.68048095703125 12.54426765441895 78.69579315185547 12.55842304229736 78.71124267578125 C 12.58983135223389 78.74549865722656 12.62490558624268 78.78376770019531 12.66177845001221 78.82711791992188 L 12.74325180053711 78.91672515869141 L 12.81449604034424 78.98798370361328 C 12.85128784179688 79.02476501464844 12.90950489044189 79.08293914794922 12.97278213500977 79.16181945800781 L 13.0112133026123 79.20451354980469 L 13.06864166259766 79.25556945800781 L 13.09055042266846 79.27503967285156 L 13.11127758026123 79.29576873779297 L 13.22124099731445 79.40571594238281 L 13.32027816772461 79.50475311279297 L 13.40070724487305 79.58518218994141 L 13.48920726776123 79.66482543945312 L 13.56607913970947 79.733154296875 L 13.65571403503418 79.80485534667969 L 13.66000461578369 79.80827331542969 L 13.6642599105835 79.81175231933594 L 13.78522300720215 79.91071319580078 L 13.82393264770508 79.94240570068359 L 13.83420372009277 79.95267486572266 L 13.8383321762085 79.94829559326172 L 13.87630271911621 79.98204040527344 C 13.89953899383545 80.00154876708984 13.9318675994873 80.02935028076172 13.9683084487915 80.06494903564453 C 14.00193405151367 80.09082794189453 14.03914356231689 80.11949920654297 14.07794094085693 80.15113830566406 L 14.1479320526123 80.20364379882812 C 14.19942283630371 80.24225616455078 14.25098705291748 80.28107452392578 14.31549549102783 80.33267974853516 L 14.42555046081543 80.42071533203125 L 14.51751041412354 80.49429321289062 L 14.61993217468262 80.56878662109375 L 14.74089622497559 80.65676879882812 L 14.83649921417236 80.72628784179688 L 14.93153190612793 80.78676605224609 L 15.0524959564209 80.86374664306641 L 15.08484172821045 80.88434600830078 L 15.10330200195312 80.898193359375 L 15.11158657073975 80.90340423583984 C 15.13296794891357 80.91676330566406 15.16170310974121 80.93473052978516 15.19522190093994 80.95779418945312 L 15.27202320098877 81.00387573242188 L 15.43687725067139 81.10276794433594 L 15.44478702545166 81.10751342773438 L 15.45262336730957 81.11241912841797 L 15.50667858123779 81.14621734619141 C 15.56319808959961 81.17637634277344 15.61115550994873 81.20515441894531 15.65142345428467 81.22931671142578 C 15.67222309112549 81.24178314208984 15.70069599151611 81.25885772705078 15.71073246002197 81.263916015625 L 15.79847812652588 81.30776977539062 L 15.83282279968262 81.324951171875 L 15.86575031280518 81.34469604492188 C 15.87100124359131 81.34784698486328 15.87619209289551 81.35102844238281 15.88139915466309 81.35417175292969 L 15.91096878051758 81.36402130126953 L 15.97449588775635 81.39580535888672 L 16.08445930480957 81.45078277587891 L 16.23844146728516 81.52778625488281 L 16.34831428527832 81.58271026611328 L 16.48573112487793 81.65142822265625 L 16.57173156738281 81.69052124023438 C 16.60223960876465 81.70314025878906 16.63078308105469 81.71568298339844 16.6592960357666 81.72834777832031 C 16.67285919189453 81.73438262939453 16.68634986877441 81.7406005859375 16.70142364501953 81.74664306640625 L 16.81136894226074 81.79060363769531 L 16.83489608764648 81.79971313476562 C 16.88815879821777 81.82012939453125 16.97019195556641 81.85157012939453 17.06150817871094 81.8997802734375 L 17.11448860168457 81.92333221435547 C 17.12800407409668 81.92905426025391 17.14093971252441 81.93430328369141 17.1530590057373 81.93904113769531 L 17.18209648132324 81.93904113769531 L 17.35184097290039 82.00267791748047 C 17.43447685241699 82.03366088867188 17.51104164123535 82.06234741210938 17.59187698364258 82.08929443359375 L 17.60945892333984 82.09514617919922 L 17.62682342529297 82.10166168212891 L 17.69916534423828 82.1287841796875 C 17.73381614685059 82.14058685302734 17.7663631439209 82.15233612060547 17.79889678955078 82.16416931152344 C 17.82093238830566 82.17218780517578 17.84293174743652 82.1802978515625 17.86696815490723 82.18831634521484 L 17.9618034362793 82.21990966796875 C 17.97049140930176 82.22239685058594 17.97914886474609 82.22450256347656 17.98760414123535 82.22669219970703 C 18.03260231018066 82.23838043212891 18.09748458862305 82.25522613525391 18.17193222045898 82.28262329101562 L 18.21545600891113 82.29713439941406 L 18.35400581359863 82.33176422119141 L 18.3643684387207 82.3343505859375 L 18.37469673156738 82.33716583251953 L 18.45780754089355 82.35984039306641 C 18.51473045349121 82.37147521972656 18.56323432922363 82.38421630859375 18.59835052490234 82.39344024658203 C 18.60644340515137 82.39556121826172 18.61434173583984 82.39771270751953 18.6219654083252 82.39960479736328 L 18.62589645385742 82.40038299560547 L 18.6362419128418 82.40269470214844 L 18.71503448486328 82.42019653320312 Z M 51.16408538818359 76.36599731445312 L 62.37387847900391 77.86813354492188 L 62.37696838378906 77.86855316162109 L 62.38005828857422 77.86898803710938 C 63.07276916503906 77.96622467041016 63.98149490356445 78.10389709472656 64.93888092041016 78.25666046142578 C 67.81089782714844 78.71440124511719 72.15142059326172 79.40616607666016 74.20364379882812 79.40616607666016 C 74.64086151123047 79.40616607666016 74.83042144775391 79.37306213378906 74.89163970947266 79.35882568359375 C 75.47618865966797 79.22036743164062 75.95882415771484 78.87982177734375 76.36320495605469 78.31865692138672 C 76.72309112548828 77.8173828125 77.02626800537109 77.15084075927734 77.26869201660156 76.32935333251953 L 51.15813064575195 76.32935333251953 C 51.16019439697266 76.34161376953125 51.16215896606445 76.35369873046875 51.16408538818359 76.36599731445312 Z M 20.87835121154785 75.09009552001953 L 20.87947845458984 75.09027862548828 L 22.56144142150879 75.3651123046875 L 30.22625923156738 76.61875152587891 L 32.22887802124023 76.94886016845703 L 40.10111236572266 78.23523712158203 L 46.07677841186523 79.21662139892578 C 46.20149993896484 78.83966827392578 46.33977890014648 78.37520599365234 46.43942260742188 78.04051208496094 C 46.48720932006836 77.87999725341797 46.5313835144043 77.73199462890625 46.57261276245117 77.59578704833984 L 38.98111343383789 75.50156402587891 L 33.71398544311523 74.05009460449219 L 16.69093132019043 69.35446166992188 L 12.88464164733887 68.29837036132812 L 12.87965965270996 68.29698944091797 L 12.87467765808105 68.29554748535156 L 11.93442916870117 68.02415466308594 L 9.217877388000488 67.97171020507812 L 7.471461772918701 67.94132995605469 L 6.720301628112793 70.74177551269531 L 10.37795829772949 73.36872863769531 L 15.95275020599365 74.28263854980469 L 20.02395439147949 74.95003509521484 L 20.02433204650879 74.94776916503906 L 20.87835121154785 75.09009552001953 Z M 121.6099014282227 71.79531097412109 L 126.3863067626953 74.8011474609375 C 126.8165512084961 73.55385589599609 127.0340042114258 72.24918365478516 127.0340042114258 70.90867614746094 C 127.0340042114258 69.69190216064453 126.8573226928711 68.50949096679688 126.5077133178711 67.38040161132812 L 121.5838241577148 69.98138427734375 C 121.6386413574219 70.30838775634766 121.666259765625 70.63307189941406 121.666259765625 70.95267486572266 C 121.666259765625 71.24174499511719 121.6473846435547 71.52325439453125 121.6099014282227 71.79531097412109 Z M 103.1258773803711 70.9058837890625 C 103.134033203125 72.23417663574219 103.3483200073242 73.52101898193359 103.7642135620117 74.74498748779297 L 109.5314865112305 71.6038818359375 C 109.5066146850586 71.38336181640625 109.4943466186523 71.16722869873047 109.4943466186523 70.95267486572266 C 109.4943466186523 70.56266021728516 109.5324859619141 70.17134094238281 109.6081085205078 69.78271484375 L 104.0502471923828 66.28331756591797 C 103.4366760253906 67.73656463623047 103.1262512207031 69.28684234619141 103.1258773803711 70.9058837890625 Z M 113.9362182617188 70.01250457763672 C 113.777458190918 70.29196929931641 113.6936798095703 70.61256408691406 113.6936798095703 70.94167327880859 C 113.6936798095703 71.45485687255859 113.8851852416992 71.91762542724609 114.2475128173828 72.27995300292969 C 114.6046752929688 72.63711547851562 115.079948425293 72.83380126953125 115.5857849121094 72.83380126953125 C 116.0916213989258 72.83380126953125 116.56689453125 72.63711547851562 116.9240798950195 72.27993011474609 C 117.0010299682617 72.20298004150391 117.0696640014648 72.12180328369141 117.1288681030273 72.03775024414062 C 117.1709136962891 71.93198394775391 117.2205276489258 71.82685089111328 117.2771224975586 71.72367095947266 C 117.3041305541992 71.67254638671875 117.3319778442383 71.62841033935547 117.35693359375 71.59214019775391 C 117.4299545288086 71.39315795898438 117.466911315918 71.17485809326172 117.466911315918 70.94169616699219 C 117.466911315918 70.44293212890625 117.2702255249023 69.97156524658203 116.9130630493164 69.61440277099609 C 116.5630035400391 69.26432800292969 116.0877151489258 69.07154846191406 115.5747833251953 69.07154846191406 C 115.0616226196289 69.07154846191406 114.5988616943359 69.26307678222656 114.2365341186523 69.62540435791016 C 114.1559753417969 69.70595550537109 114.0893630981445 69.78431701660156 114.0380859375 69.85880279541016 C 114.0152359008789 69.89955139160156 113.9830474853516 69.95156097412109 113.9394607543945 70.00791931152344 C 113.938362121582 70.00947570800781 113.9372787475586 70.01100921630859 113.9362182617188 70.01250457763672 Z M 30.25620079040527 68.55035400390625 L 33.05078125 69.32352447509766 C 32.95831298828125 68.64159393310547 32.80632019042969 67.97184753417969 32.59564590454102 67.31834411621094 L 30.25620079040527 68.55035400390625 Z M 23.6474666595459 65.44840240478516 C 24.17754936218262 65.6654052734375 24.67452621459961 65.95639038085938 25.12273597717285 66.31240844726562 L 30.50314903259277 63.4748649597168 C 28.81315422058105 61.40963745117188 26.47738838195801 59.98203659057617 23.87371635437012 59.42345428466797 L 23.6474666595459 65.44840240478516 Z M 117.8886871337891 65.32870483398438 C 118.4196929931641 65.54643249511719 118.9164962768555 65.83699035644531 119.3635406494141 66.19146728515625 L 124.4638290405273 63.49965286254883 C 122.8521575927734 61.46102142333984 120.6168518066406 59.99797821044922 118.1131744384766 59.34201812744141 L 117.8886871337891 65.32870483398438 Z M 106.4635620117188 62.63590240478516 L 111.9404144287109 66.08335113525391 C 112.4160766601562 65.72489929199219 112.9462051391602 65.43912506103516 113.5144729614258 65.23490142822266 L 113.7522354125977 59.03610992431641 C 110.9751510620117 59.34514999389648 108.4037857055664 60.61544799804688 106.4635620117188 62.63590240478516 Z M 14.52709007263184 64.19959259033203 L 19.01074028015137 65.43953704833984 C 19.09432983398438 65.40524291992188 19.17823791503906 65.37298583984375 19.26266670227051 65.34268951416016 L 19.49751663208008 59.30376815795898 C 19.46895408630371 59.30859756469727 19.44143867492676 59.31341934204102 19.41637802124023 59.31829452514648 L 19.32918739318848 59.33767700195312 L 19.29156875610352 59.34603881835938 L 19.25340461730957 59.35149383544922 C 19.23887825012207 59.3538932800293 19.2225513458252 59.35780334472656 19.20613288879395 59.36133193969727 C 19.16431427001953 59.37028884887695 19.11383056640625 59.38109970092773 19.05514907836914 59.39051818847656 L 19.03350067138672 59.39484786987305 C 18.99160766601562 59.40423202514648 18.95174217224121 59.41362380981445 18.91187858581543 59.42300415039062 C 18.8654670715332 59.43392562866211 18.81905555725098 59.44483184814453 18.77033424377441 59.45575332641602 L 18.69482231140137 59.4746208190918 L 18.65615081787109 59.48429489135742 L 18.62418556213379 59.48961639404297 C 18.61478614807129 59.49175643920898 18.60540962219238 59.49423599243164 18.59600448608398 59.49658584594727 C 18.5682201385498 59.50353622436523 18.53398704528809 59.51209259033203 18.49440765380859 59.52048873901367 L 18.4317684173584 59.53927612304688 L 18.4292049407959 59.54005813598633 L 18.4266414642334 59.54080581665039 L 18.23969650268555 59.59578704833984 L 18.20740509033203 59.60529327392578 L 18.17453193664551 59.61258697509766 L 18.10477638244629 59.62809371948242 C 18.04891967773438 59.64408493041992 17.99396514892578 59.66004180908203 17.95493316650391 59.67305755615234 L 17.89571380615234 59.69280242919922 L 17.84858894348145 59.70222473144531 C 17.81234931945801 59.71437072753906 17.77908325195312 59.72476196289062 17.7498950958252 59.7338752746582 C 17.71838760375977 59.74373245239258 17.68862342834473 59.7530403137207 17.67080497741699 59.75971221923828 L 17.65344047546387 59.7662239074707 L 17.63586044311523 59.77207565307617 L 17.56085395812988 59.79706954956055 C 17.53303337097168 59.8077507019043 17.50384330749512 59.81847381591797 17.47460556030273 59.8291130065918 C 17.45458602905273 59.83638763427734 17.43449592590332 59.8434944152832 17.41629600524902 59.85078430175781 L 17.30620574951172 59.89482116699219 L 17.14129638671875 59.96078491210938 L 17.03129577636719 60.00478744506836 L 16.94882392883301 60.03776931762695 L 16.88401985168457 60.06369400024414 L 16.80205917358398 60.10011291503906 L 16.79609680175781 60.10276794433594 L 16.79007720947266 60.10533142089844 C 16.76909637451172 60.11433029174805 16.7474422454834 60.12334823608398 16.72538757324219 60.13249588012695 C 16.69902229309082 60.14345932006836 16.6591682434082 60.16000366210938 16.64580535888672 60.16689682006836 L 16.60204124450684 60.19191360473633 L 16.56033134460449 60.20998764038086 L 16.48202514648438 60.24480056762695 L 16.34833145141602 60.31164169311523 L 16.33176803588867 60.31991195678711 L 16.31491470336914 60.32758712768555 L 16.21057891845703 60.37500381469727 L 16.111572265625 60.42452621459961 L 16.00613212585449 60.48204040527344 L 15.92789554595947 60.52471160888672 L 15.84335041046143 60.55287551879883 L 15.77895736694336 60.5743293762207 L 15.7326774597168 60.59747695922852 L 15.62460136413574 60.65153884887695 C 15.60165119171143 60.66389465332031 15.57845401763916 60.67644119262695 15.55391693115234 60.69040679931641 L 15.42625999450684 60.76485824584961 L 15.41724109649658 60.77011489868164 L 15.40811443328857 60.77518463134766 L 15.31202697753906 60.82857131958008 C 15.30525875091553 60.83358383178711 15.29850196838379 60.83876800537109 15.2916955947876 60.84387588500977 L 15.26938724517822 60.86062240600586 L 15.24620532989502 60.87607574462891 L 15.14722347259521 60.94205856323242 L 15.0153865814209 61.02996826171875 L 14.91629600524902 61.09602355957031 L 14.90115070343018 61.10611343383789 L 14.88565921783447 61.11563873291016 L 14.75837516784668 61.1939582824707 L 14.74967002868652 61.19976425170898 L 14.59418678283691 61.30862045288086 L 14.42927742004395 61.42404174804688 L 14.41993236541748 61.43058776855469 L 14.41044139862061 61.43693161010742 L 14.37255096435547 61.46218872070312 L 14.277587890625 61.53523254394531 L 14.22064113616943 61.58404159545898 L 14.1959867477417 61.60516738891602 L 14.17002296447754 61.62464141845703 C 14.15932750701904 61.63267135620117 14.14858913421631 61.64030456542969 14.13803482055664 61.64883041381836 L 14.1129322052002 61.67393112182617 L 14.07807731628418 61.70296859741211 L 14.01209545135498 61.75794982910156 L 14.0044412612915 61.76433181762695 L 13.99664115905762 61.77056884765625 C 13.84707736968994 61.89022064208984 13.69407749176025 62.02282333374023 13.53209590911865 62.16320419311523 L 13.48449611663818 62.20444107055664 L 13.46718978881836 62.21599578857422 C 13.45654773712158 62.22557830810547 13.4464635848999 62.23453903198242 13.43705940246582 62.24289321899414 C 13.426513671875 62.25227737426758 13.41582298278809 62.26145935058594 13.40604114532471 62.27082061767578 L 13.35325908660889 62.32363891601562 C 13.30907440185547 62.36782455444336 13.25143718719482 62.42546081542969 13.17751121520996 62.48838806152344 L 13.15531444549561 62.51058578491211 L 13.0232048034668 62.64267730712891 L 13.00165939331055 62.66424179077148 C 12.88048648834229 62.7854118347168 12.76522350311279 62.90732574462891 12.65785694122314 63.02782821655273 L 14.52709007263184 64.19959259033203 Z M 74.44260406494141 51.25547790527344 L 75.29933166503906 59.75678634643555 C 75.31909942626953 59.95169448852539 75.43951416015625 60.24264144897461 75.68994903564453 60.24264144897461 L 82.29893493652344 60.24264144897461 C 82.56129455566406 60.24264144897461 82.70584106445312 59.65000534057617 82.71186065673828 59.62478637695312 L 84.70394897460938 51.15288162231445 C 84.65128326416016 51.07700729370117 84.47278594970703 50.96007537841797 84.30031585693359 50.96007537841797 L 74.84320831298828 50.96007537841797 C 74.72327423095703 50.96007537841797 74.59220123291016 51.01853179931641 74.50926208496094 51.10896682739258 C 74.47684478759766 51.14434051513672 74.4393310546875 51.19817352294922 74.44260406494141 51.25547790527344 Z M 53.36841201782227 59.16384124755859 C 53.37178039550781 59.16431427001953 53.37832260131836 59.16496658325195 53.38873291015625 59.16496658325195 L 59.99771499633789 59.16496658325195 C 60.26204299926758 59.16496658325195 60.36985778808594 58.83740234375 60.38994979858398 58.66420364379883 L 61.17069625854492 51.92338562011719 C 61.17633056640625 51.87543869018555 61.12824249267578 51.81729507446289 61.11336898803711 51.80056762695312 C 61.03473281860352 51.71213150024414 60.90780639648438 51.65271377563477 60.79751586914062 51.65271377563477 L 60.79296875 51.65274810791016 L 50.3343505859375 51.79573059082031 C 50.18782424926758 51.79782867431641 50.02075576782227 51.87540054321289 49.91872787475586 51.94803619384766 L 52.90933227539062 58.35649490356445 L 52.91044235229492 58.35886001586914 L 52.91153335571289 58.36124038696289 L 52.92509460449219 58.39071273803711 C 53.03783798217773 58.6357536315918 53.24686431884766 59.09005737304688 53.36841201782227 59.16384124755859 Z M 95.18743133544922 31.09580039978027 L 105.7910995483398 52.02067947387695 C 105.9708404541016 51.9318962097168 106.1522979736328 51.84578323364258 106.3352966308594 51.76243209838867 L 95.2674560546875 31.05291557312012 C 95.24095153808594 31.06731224060059 95.21426391601562 31.08161926269531 95.18743133544922 31.09580039978027 Z M 12.8478889465332 38.54407501220703 C 19.4134407043457 40.92855453491211 27.55668640136719 42.67341995239258 35.42005920410156 43.36664199829102 C 37.99391555786133 43.59280395507812 40.50894927978516 43.70747756958008 42.89502334594727 43.70749664306641 C 47.59639358520508 43.70749664306641 51.79938888549805 43.25386428833008 55.12485504150391 42.3917350769043 L 54.82510375976562 40.83052062988281 C 52.88593673706055 41.27216720581055 50.87557983398438 41.48773574829102 48.71175003051758 41.48775100708008 C 48.35243988037109 41.48775100708008 47.98358535766602 41.48158645629883 47.61545944213867 41.46942138671875 C 44.8660774230957 41.3797492980957 41.91247940063477 40.95615005493164 38.32073211669922 40.13629531860352 C 36.79636764526367 39.78623962402344 35.47631454467773 39.41622161865234 34.25476837158203 39.06722259521484 C 31.54353141784668 38.30335235595703 29.19887161254883 37.6427116394043 25.94774627685547 37.61013031005859 L 25.86413192749023 37.61013031005859 L 25.82175064086914 37.61013031005859 L 25.77953147888184 37.60654830932617 L 14.18246078491211 36.62180709838867 L 12.8478889465332 38.54407501220703 Z M 59.56830596923828 41.78211975097656 L 86.00843811035156 41.87822341918945 L 86.11476898193359 41.87822341918945 L 86.16014862060547 41.87822341918945 L 86.20532989501953 41.88233184814453 C 86.39427947998047 41.89951324462891 86.57781982421875 41.90822219848633 86.75087738037109 41.90822219848633 C 87.11421203613281 41.90822219848633 87.44570159912109 41.86987686157227 87.73646545410156 41.79418563842773 C 88.06538391113281 41.69511413574219 88.34755706787109 41.54106140136719 88.57542419433594 41.33616638183594 C 89.98858642578125 40.04573822021484 89.89134216308594 37.57281875610352 89.80105590820312 35.38591766357422 L 89.79178619384766 35.27449417114258 L 89.79016876220703 35.25494766235352 L 89.78931427001953 35.23534774780273 L 89.68862915039062 32.93790817260742 C 88.48652648925781 32.03591156005859 87.16386413574219 31.33797836303711 85.750732421875 30.86058616638184 L 85.74829864501953 30.85976791381836 L 85.74585723876953 30.85893058776855 C 84.11717224121094 30.29936790466309 82.33754730224609 29.99938583374023 80.4564208984375 29.96731376647949 C 80.27178955078125 29.96358680725098 80.08815002441406 29.96173095703125 79.90747833251953 29.96173095703125 C 77.05104064941406 29.96173095703125 74.33680725097656 30.40700340270996 71.60968017578125 31.3230037689209 C 68.92505645751953 32.21787643432617 66.26982116699219 33.55704116821289 63.49007797241211 35.41775131225586 C 62.56464004516602 36.03127670288086 61.60918807983398 36.72258758544922 60.64653396606445 37.47500228881836 L 60.64402389526367 37.47694778442383 L 60.64151382446289 37.4788932800293 C 60.01902770996094 37.9591064453125 59.44880294799805 38.42283248901367 58.91100692749023 38.88647842407227 L 59.04022216796875 39.55606079101562 L 59.56830596923828 41.78211975097656 Z M 108.6699371337891 36.90925598144531 C 108.6873092651367 36.90998840332031 108.704345703125 36.91040420532227 108.7210388183594 36.91040420532227 C 108.7503356933594 36.91040420532227 108.7712860107422 36.90913009643555 108.7853698730469 36.90774917602539 C 108.7966461181641 36.89577865600586 108.8125 36.87760543823242 108.8323822021484 36.85147476196289 C 108.9968032836914 36.62288284301758 109.2792816162109 36.02987670898438 109.3623886108398 34.60219955444336 L 109.3623886108398 30.24307632446289 C 109.3623886108398 28.96834945678711 109.1812057495117 28.25536727905273 109.0292053222656 27.88169479370117 C 108.9102935791016 27.5878849029541 108.8010025024414 27.50015068054199 108.7833099365234 27.48741912841797 C 108.7731781005859 27.48443412780762 108.7386474609375 27.47603988647461 108.6700744628906 27.47603988647461 C 108.5990753173828 27.47603988647461 108.4761123657227 27.48542976379395 108.2930221557617 27.52999687194824 C 107.8919830322266 27.6307201385498 107.197868347168 27.91226768493652 106.1648559570312 28.68102264404297 L 106.1596221923828 28.6849308013916 L 106.1543350219727 28.68874931335449 C 105.9250030517578 28.85482215881348 105.6911697387695 29.01644134521484 105.443603515625 29.18756866455078 C 105.3368072509766 29.26138687133789 105.227912902832 29.33664131164551 105.1169662475586 29.41398620605469 L 105.0600433349609 29.45369529724121 C 103.9146575927734 30.25262260437012 102.3459854125977 31.34680366516113 102.130729675293 32.24627685546875 C 102.0846786499023 32.43756484985352 102.0579376220703 32.56876754760742 102.0424728393555 32.65787124633789 C 102.2067489624023 32.79396057128906 102.4735336303711 32.98995971679688 102.651985168457 33.12105941772461 L 106.0172805786133 35.59555053710938 C 107.0986709594727 36.38729476928711 108.0651931762695 36.86597061157227 108.6699371337891 36.90925598144531 Z" stroke="none"/>
        <path d="M 81.36187744140625 -0.0229644775390625 C 80.54903411865234 -0.02289581298828125 79.87748718261719 0.6077041625976562 79.82468414306641 1.420852661132812 L 79.25286865234375 10.42710876464844 C 79.19788360595703 11.28485107421875 79.8466796875 12.01062774658203 80.69342041015625 12.06561279296875 C 81.55112457275391 12.1204833984375 82.27693176269531 11.47178649902344 82.33192443847656 10.62504577636719 L 82.41988372802734 9.195487976074219 C 82.55186462402344 9.272468566894531 82.60684204101562 9.305450439453125 82.66181945800781 9.338447570800781 C 82.69480133056641 9.349449157714844 82.71680450439453 9.371429443359375 82.74980163574219 9.382431030273438 C 83.25564575195312 9.690330505371094 83.62952423095703 9.921272277832031 83.80546569824219 10.46010589599609 C 83.86045837402344 10.63604736328125 83.90444183349609 10.81198883056641 83.92644500732422 10.99893188476562 C 83.95942687988281 11.2188720703125 83.97042846679688 11.47178649902344 83.95942687988281 11.74671173095703 L 83.95942687988281 11.79071044921875 L 83.94842529296875 11.79071044921875 L 83.94842529296875 20.08216857910156 L 74.81020355224609 20.08216857910156 C 73.66656494140625 20.08216857910156 72.73184204101562 21.00588989257812 72.73184204101562 22.16053009033203 C 72.73184204101562 23.30419158935547 73.65556335449219 24.23890686035156 74.81020355224609 24.23890686035156 L 84.72920227050781 24.23890686035156 L 91.07426452636719 29.00045013427734 C 90.94230651855469 29.17638778686523 90.86532592773438 29.39632797241211 90.85432434082031 29.61626815795898 C 89.57872009277344 28.7805290222168 88.23712158203125 28.13172912597656 86.85154724121094 27.64786911010742 C 84.83916473388672 26.95507049560547 82.71680450439453 26.62519073486328 80.52845764160156 26.58119201660156 C 76.97659301757812 26.51522827148438 73.68856811523438 27.0650520324707 70.55450439453125 28.1097297668457 C 67.44246673583984 29.15441131591797 64.495361328125 30.68294906616211 61.62522125244141 32.59637069702148 C 60.54756164550781 33.31114959716797 59.53586578369141 34.03693008422852 58.57916259765625 34.78469085693359 C 57.65544128417969 35.49948883056641 56.76470184326172 36.24724960327148 55.88498687744141 37.02801132202148 C 53.1907958984375 37.89674758911133 50.46364593505859 38.1716423034668 47.7254638671875 38.08369064331055 C 44.87734222412109 37.99573135375977 41.98520660400391 37.50086975097656 39.08208465576172 36.83007049560547 C 37.66352081298828 36.50016784667969 36.38792419433594 36.14828872680664 35.17828369140625 35.80738830566406 C 32.27516174316406 34.99362945556641 29.72394561767578 34.27885055541992 26.06206512451172 34.22386932373047 L 13.20698547363281 33.13518905639648 C 12.75618743896484 33.10221862792969 12.33824157714844 33.3221321105957 12.1072998046875 33.67403030395508 L 8.489402770996094 38.88644790649414 C 8.115524291992188 39.42528915405273 8.247482299804688 40.16204833984375 8.786323547363281 40.53594970703125 C 8.874305725097656 40.6019287109375 8.962265014648438 40.64590835571289 9.061241149902344 40.67890930175781 C 10.27086639404297 41.18474960327148 11.52448272705078 41.65760803222656 12.83308410644531 42.10847091674805 C 6.927886962890625 43.85692977905273 2.067367553710938 47.11193084716797 0 52.12641143798828 L 6.916885375976562 52.21438980102539 C 19.40906524658203 41.59162902832031 41.18246459960938 45.6603889465332 49.89179992675781 75.329345703125 L 78.53810119628906 75.329345703125 C 78.24120330810547 76.84689331054688 77.79032135009766 78.0455322265625 77.17452239990234 78.90326690673828 C 76.63568115234375 79.65103149414062 75.95388793945312 80.1348876953125 75.11814880371094 80.33283233642578 C 73.69956970214844 80.66272735595703 68.30021667480469 79.80499267578125 64.78128051757812 79.24417114257812 C 63.74760437011719 79.07920837402344 62.86788177490234 78.94725036621094 62.24106597900391 78.85929107666016 L 50.17774200439453 77.24276733398438 C 50.35368347167969 76.07713317871094 49.62790679931641 74.9224853515625 48.46224212646484 74.60356903076172 L 41.67732238769531 72.72315216064453 C 41.7322998046875 72.12933349609375 41.76528167724609 71.52450561523438 41.76528167724609 70.90870666503906 C 41.76528167724609 65.39936828613281 39.47800445556641 60.40690994262695 35.78312683105469 56.78900909423828 C 32.08824157714844 53.18209075927734 26.99680328369141 50.94976806640625 21.37750244140625 50.94976806640625 C 15.75822448730469 50.94976806640625 10.65576171875 53.18210983276367 6.971878051757812 56.78900909423828 C 3.277023315429688 60.40690994262695 0.9897003173828125 65.39936828613281 0.9897003173828125 70.90870666503906 C 0.9897003173828125 76.41802978515625 3.277023315429688 81.41049194335938 6.971878051757812 85.02838897705078 C 10.66676330566406 88.63529205322266 15.75822448730469 90.86760711669922 21.37750244140625 90.86760711669922 C 26.99680328369141 90.86760711669922 32.0992431640625 88.63529205322266 35.78312683105469 85.02838897705078 C 36.89378356933594 83.93972778320312 37.88348388671875 82.73008728027344 38.71922302246094 81.41049194335938 L 46.50484466552734 82.68611145019531 C 47.73649597167969 82.88404846191406 48.89112091064453 82.10328674316406 49.18804168701172 80.9156494140625 L 49.24300384521484 80.71771240234375 L 61.79018402099609 82.40019226074219 C 62.35102081298828 82.4771728515625 63.21976470947266 82.609130859375 64.2314453125 82.77407073974609 C 68.03627777099609 83.37889099121094 73.86451721191406 84.31361389160156 75.94288635253906 83.81877136230469 C 77.64736175537109 83.41187286376953 79.02194213867188 82.46617126464844 80.07762145996094 80.99263000488281 C 81.02334594726562 79.67302703857422 81.69413757324219 77.91356658935547 82.09000396728516 75.73622894287109 C 82.11199951171875 75.61524963378906 82.11199951171875 75.48330688476562 82.11199951171875 75.35134887695312 L 86.82955932617188 75.35134887695312 L 97.50732421875 43.24113082885742 L 103.3245391845703 54.67763137817383 C 98.29906463623047 58.31752777099609 95.03306579589844 64.23373413085938 95.03306579589844 70.91969299316406 C 95.03306579589844 81.99330902099609 104.0063247680664 90.96659088134766 115.079963684082 90.96659088134766 C 126.153564453125 90.96659088134766 135.1268463134766 81.99330902099609 135.1268463134766 70.91969299316406 C 135.1268463134766 59.84605026245117 126.153564453125 50.8727912902832 115.0799407958984 50.8727912902832 C 113.3314666748047 50.8727912902832 111.6269989013672 51.09272766113281 110.021484375 51.49961090087891 L 102.5547637939453 37.66582870483398 L 103.8193817138672 38.60052871704102 C 105.4688873291016 39.82114791870117 107.0633850097656 40.55792999267578 108.4819641113281 40.63491058349609 C 109.141731262207 40.66788482666016 109.7685623168945 40.56893157958984 110.3513793945312 40.30500793457031 C 110.9342041015625 40.04108810424805 111.4400405883789 39.63420867919922 111.8689270019531 39.05138778686523 C 112.5617065429688 38.10569000244141 113.0015640258789 36.70911026000977 113.1225433349609 34.77368927001953 C 113.133544921875 34.71870803833008 113.133544921875 34.65272903442383 113.133544921875 34.59774780273438 L 113.133544921875 30.22108840942383 C 113.133544921875 28.70354843139648 112.9136047363281 27.43893051147461 112.506721496582 26.438232421875 C 112.0558624267578 25.32756805419922 111.3630676269531 24.54680633544922 110.4723434448242 24.095947265625 C 109.5816268920898 23.65609741210938 108.5369415283203 23.56810760498047 107.3822784423828 23.86501312255859 C 106.3376235961914 24.12895202636719 105.1829605102539 24.72277069091797 103.9403457641602 25.64646911621094 C 103.6544189453125 25.85540771484375 103.3245239257812 26.08634948730469 102.9946212768555 26.31726837158203 C 101.4111022949219 27.41693115234375 99.59666442871094 28.67055130004883 98.78289794921875 30.49600982666016 L 97.08942413330078 27.26298904418945 L 97.06744384765625 27.22998809814453 C 96.77052307128906 26.64716339111328 96.05572509765625 26.40525054931641 95.47292327880859 26.69116973876953 L 95.12101745605469 26.86711120605469 L 95.08804321289062 26.8341064453125 L 93.91140747070312 25.95439147949219 L 95.197998046875 25.51451110839844 C 95.38494873046875 25.44853210449219 95.56089782714844 25.33856964111328 95.70386505126953 25.17362976074219 L 99.32176208496094 21.04988861083984 L 99.34374237060547 21.01689147949219 C 99.76160430908203 20.51103210449219 99.68464660644531 19.76326751708984 99.17880249023438 19.34539031982422 L 95.71484375 16.49726867675781 L 95.69286346435547 16.47527313232422 C 95.19800567626953 16.04640197753906 94.45024871826172 16.11239624023438 94.0213623046875 16.60723114013672 L 90.31550598144531 20.92890930175781 C 90.28250122070312 20.96190643310547 90.24952697753906 21.00588989257812 90.21652221679688 21.04988861083984 C 89.83164215087891 21.57771301269531 89.95260620117188 22.32549285888672 90.48043823242188 22.71037292480469 L 91.42616271972656 23.39216613769531 L 91.06326293945312 23.81002807617188 L 87.03848266601562 20.79695129394531 L 87.03848266601562 11.79071044921875 C 87.04948425292969 11.37283325195312 87.02748107910156 10.97695159912109 86.98350524902344 10.61405181884766 C 86.92852783203125 10.20719146728516 86.85154724121094 9.844291687011719 86.74158477783203 9.514389038085938 C 86.20274353027344 7.875892639160156 85.39997863769531 7.370048522949219 84.30032348632812 6.732231140136719 C 84.2783203125 6.710250854492188 84.25632476806641 6.688247680664062 84.22334289550781 6.677268981933594 L 83.79446411132812 6.424331665039062 L 82.63982391357422 5.720550537109375 L 82.90374755859375 1.618789672851562 C 82.95872497558594 0.7610702514648438 82.30992126464844 0.03527069091796875 81.46318054199219 -0.01970672607421875 C 81.42915344238281 -0.02188873291015625 81.39545440673828 -0.0229644775390625 81.36187744140625 -0.0229644775390625 M 108.7210388183594 37.910400390625 C 108.6861724853516 37.910400390625 108.6504440307617 37.90948486328125 108.6139221191406 37.90774917602539 C 107.7671661376953 37.85274887084961 106.6565017700195 37.30292892456055 105.4248809814453 36.40118789672852 L 102.0599060058594 33.92694854736328 C 101.5210876464844 33.53107070922852 101.1691589355469 33.26715087890625 101.0702056884766 33.06921005249023 C 100.9822235107422 32.91526794433594 101.0152282714844 32.60736846923828 101.1581878662109 32.01353073120117 C 101.4660797119141 30.7269287109375 103.1265869140625 29.58327102661133 104.545166015625 28.59357070922852 C 104.9080429077148 28.34064865112305 105.2489471435547 28.1097297668457 105.5678253173828 27.87878799438477 C 106.513542175293 27.17501068115234 107.3493041992188 26.73515319824219 108.0530853271484 26.55918884277344 C 108.5479278564453 26.43824005126953 108.9438018798828 26.44923400878906 109.2297210693359 26.59218597412109 C 109.5156402587891 26.73515319824219 109.7685623168945 27.04304885864258 109.9555053710938 27.50490951538086 C 110.2194213867188 28.15370941162109 110.3623809814453 29.06642913818359 110.3623809814453 30.24306869506836 L 110.3623809814453 34.63072967529297 C 110.285400390625 36.00531005859375 110.021484375 36.91804885864258 109.636604309082 37.44586944580078 C 109.504638671875 37.62182998657227 109.3616790771484 37.75378799438477 109.2077255249023 37.81977081298828 C 109.0688629150391 37.88457489013672 108.9066619873047 37.910400390625 108.7210388183594 37.910400390625 M 86.7508544921875 42.90822601318359 C 86.54781341552734 42.90822601318359 86.33585357666016 42.89833068847656 86.11476135253906 42.87823104858398 C 86.081787109375 42.87823104858398 86.03778076171875 42.87823104858398 86.00480651855469 42.87823104858398 L 58.777099609375 42.77927017211914 L 58.06232452392578 39.76617050170898 L 57.82038116455078 38.51255035400391 C 58.52416229248047 37.88574981689453 59.26094055175781 37.28092956542969 60.03072357177734 36.68711090087891 C 60.9874267578125 35.93935012817383 61.95512390136719 35.23554992675781 62.93382263183594 34.58675003051758 C 65.62800598144531 32.78330993652344 68.38816070556641 31.34275054931641 71.29128265380859 30.37503051757812 C 74.17240142822266 29.40732574462891 77.20751953125 28.90150833129883 80.47348022460938 28.96746826171875 C 82.40888214111328 29.00045013427734 84.2783203125 29.29737091064453 86.07078552246094 29.91316986083984 C 87.69828796386719 30.46300888061523 89.23780822753906 31.28775024414062 90.66738128662109 32.4314079284668 L 90.78834533691406 35.19157028198242 L 90.79934692382812 35.32352828979492 C 90.89830017089844 37.72080993652344 91.00826263427734 40.469970703125 89.24880218505859 42.07546997070312 C 88.90792846679688 42.38338851928711 88.49004364013672 42.61431121826172 88.00620269775391 42.75727081298828 C 87.63150787353516 42.85668182373047 87.21432495117188 42.90822601318359 86.7508544921875 42.90822601318359 M 105.3589019775391 53.38002777099609 L 93.80142211914062 30.57297134399414 C 94.39524841308594 30.44100952148438 95.01106262207031 30.05612945556641 95.50590515136719 29.74822998046875 C 95.54990386962891 29.6932487487793 95.5828857421875 29.63824844360352 95.61588287353516 29.58327102661133 L 107.7341842651367 52.25836944580078 C 106.9094390869141 52.5772705078125 106.1176834106445 52.95116806030273 105.3589019775391 53.38002777099609 M 48.71172332763672 40.48775482177734 C 51.01310729980469 40.48775482177734 53.29938507080078 40.23168563842773 55.57706451416016 39.61222839355469 L 55.75302124023438 40.35998916625977 L 56.28086090087891 43.10914993286133 C 50.77155303955078 44.73666763305664 43.21685791015625 45.05556869506836 35.33224487304688 44.36277008056641 C 26.97478485107422 43.62601089477539 18.28742218017578 41.73456954956055 11.29356384277344 39.02941131591797 L 13.69082641601562 35.57645034790039 L 25.86412048339844 36.61013031005859 C 25.89712524414062 36.61013031005859 25.91910552978516 36.61013031005859 25.95210266113281 36.61013031005859 C 29.31708526611328 36.64313125610352 31.75832366943359 37.32492828369141 34.52947998046875 38.10569000244141 C 35.76110076904297 38.45756912231445 37.05872344970703 38.82046890258789 38.54326629638672 39.16136932373047 C 41.57834625244141 39.85414886474609 44.61342620849609 40.37099075317383 47.64848327636719 40.469970703125 C 48.00338745117188 40.4817008972168 48.35758209228516 40.48775482177734 48.71172332763672 40.48775482177734 M 82.29891967773438 61.24263000488281 L 75.68994140625 61.24263000488281 C 74.93116760253906 61.24263000488281 74.38132476806641 60.61582946777344 74.30436706542969 59.85704803466797 L 73.44662475585938 51.34564971923828 C 73.38064575195312 50.58689117431641 74.08444213867188 49.96006774902344 74.84320068359375 49.96006774902344 L 84.30032348632812 49.96006774902344 C 85.05908203125 49.96006774902344 85.86184692382812 50.60887145996094 85.68589782714844 51.34564971923828 L 83.68450164794922 59.85704803466797 C 83.50856018066406 60.59383010864258 83.05770874023438 61.24263000488281 82.29891967773438 61.24263000488281 M 59.99772644042969 60.16494750976562 L 53.38872528076172 60.16494750976562 C 52.62996673583984 60.16494750976562 52.32204437255859 59.47216796875 52.00316619873047 58.77938842773438 L 48.92410278320312 52.18138885498047 C 48.60520172119141 51.48860931396484 49.5509033203125 50.80680847167969 50.32066345214844 50.79581069946289 L 60.77848052978516 50.65285110473633 C 61.53734588623047 50.6417121887207 62.25202178955078 51.29066848754883 62.1640625 52.03842926025391 L 61.38330078125 58.77938842773438 C 61.29532623291016 59.53814697265625 60.75648498535156 60.16494750976562 59.99772644042969 60.16494750976562 M 112.0338592529297 67.32379150390625 L 104.9410247802734 62.85914993286133 C 107.2613220214844 59.94503021240234 110.80224609375 58.05360794067383 114.7940444946289 57.96562957763672 L 114.4861221313477 65.99318695068359 C 113.5404052734375 66.20213317871094 112.6936798095703 66.66398620605469 112.0338592529297 67.32379150390625 M 119.2146835327148 67.40074920654297 L 119.1707000732422 67.35676574707031 C 118.5438842773438 66.72996520996094 117.7411422729492 66.26811218261719 116.8614044189453 66.03717041015625 L 117.1583251953125 58.11959075927734 C 120.8421859741211 58.71340942382812 123.9982223510742 60.85774993896484 125.9446411132812 63.84885025024414 L 119.2146835327148 67.40074920654297 M 19.09017944335938 66.49903106689453 L 14.11970520019531 65.12445068359375 L 11.17259979248047 63.27700805664062 C 11.32654571533203 63.06806945800781 11.48050689697266 62.8701286315918 11.64544677734375 62.68318939208984 L 11.65644073486328 62.65020751953125 C 11.71142578125 62.59523010253906 11.75542449951172 62.54024887084961 11.79940032958984 62.48525238037109 L 11.83240509033203 62.4522705078125 C 11.975341796875 62.28730773925781 12.12930297851562 62.12236785888672 12.29424285888672 61.95742797851562 L 12.31624603271484 61.93542861938477 C 12.36024475097656 61.89144897460938 12.40422058105469 61.84745025634766 12.44820404052734 61.803466796875 L 12.50318145751953 61.74848937988281 C 12.55816650390625 61.70450973510742 12.60216522216797 61.66050720214844 12.64614105224609 61.61653137207031 L 12.70112609863281 61.56155014038086 C 12.74512481689453 61.51757049560547 12.80010223388672 61.47357177734375 12.84408569335938 61.42958831787109 L 12.87705993652344 61.40758895874023 C 13.04202270507812 61.26462936401367 13.20698547363281 61.12166976928711 13.37192535400391 60.98970794677734 L 13.43790435791016 60.93473052978516 C 13.48188018798828 60.8907470703125 13.52588653564453 60.85776901245117 13.56986236572266 60.82476806640625 L 13.64684295654297 60.7587890625 L 13.78977966308594 60.64883041381836 L 13.85578155517578 60.60482788085938 C 13.96574401855469 60.52787017822266 14.07570648193359 60.45088958740234 14.18568420410156 60.37390899658203 L 14.21866607666016 60.35190963745117 L 14.36162567138672 60.26395034790039 L 14.69152069091797 60.04401016235352 C 14.73550415039062 60.01100921630859 14.77947998046875 59.97801208496094 14.823486328125 59.95603179931641 L 14.92243957519531 59.90104675292969 L 15.05440521240234 59.82406997680664 C 15.13138580322266 59.78009033203125 15.19736480712891 59.74708938598633 15.27434539794922 59.70310974121094 L 15.28533935546875 59.70310974121094 L 15.39530181884766 59.64813232421875 L 15.52725982666016 59.60414886474609 L 15.64822387695312 59.53814697265625 L 15.78020477294922 59.47216796875 L 15.90114593505859 59.41719055175781 L 16.05509948730469 59.3402099609375 L 16.15408325195312 59.29623031616211 C 16.23106384277344 59.25225067138672 16.31902313232422 59.2192497253418 16.39600372314453 59.18627166748047 L 16.49497985839844 59.14226913452148 C 16.54996490478516 59.12028884887695 16.60494232177734 59.09828948974609 16.65991973876953 59.07629013061523 L 17.0447998046875 58.92234802246094 C 17.09978485107422 58.90034866333008 17.16576385498047 58.87834930419922 17.22076416015625 58.85634994506836 L 17.31972503662109 58.82336807250977 C 17.40769958496094 58.79037094116211 17.49566650390625 58.76839065551758 17.58364105224609 58.73538970947266 L 17.63862609863281 58.72438812255859 C 17.70460510253906 58.70240783691406 17.78158569335938 58.6804084777832 17.85856628417969 58.65840911865234 L 17.95751953125 58.63642883300781 L 18.25444030761719 58.5484504699707 C 18.32042694091797 58.53744888305664 18.38640594482422 58.51546859741211 18.45238494873047 58.50447082519531 L 18.54035949707031 58.48246765136719 C 18.63932037353516 58.46046829223633 18.72727966308594 58.4384880065918 18.82626342773438 58.41648864746094 L 18.88124084472656 58.40549087524414 C 18.95822143554688 58.39448928833008 19.03520202636719 58.37250900268555 19.1121826171875 58.36151123046875 L 19.21114349365234 58.33950805664062 C 19.26612091064453 58.32851028442383 19.33209991455078 58.31750869750977 19.39808654785156 58.3065299987793 L 19.50806427001953 58.28453063964844 C 19.56304168701172 58.28453063964844 19.62902069091797 58.27352905273438 19.69499969482422 58.26253128051758 L 19.79398345947266 58.25154876708984 C 19.8929443359375 58.24055099487305 19.98092651367188 58.22954940795898 20.07987976074219 58.21854782104492 L 20.12386322021484 58.21854782104492 C 20.21184539794922 58.20755004882812 20.29981994628906 58.20755004882812 20.38778686523438 58.19654846191406 L 20.48676300048828 58.18556976318359 L 20.54174041748047 58.18556976318359 L 20.23384094238281 66.1031494140625 C 19.82696533203125 66.19113159179688 19.45308685302734 66.32308959960938 19.09017944335938 66.49903106689453 M 24.97340393066406 67.521728515625 L 24.92940521240234 67.47772979736328 C 24.30260467529297 66.85092926025391 23.51082611083984 66.38906860351562 22.62010192871094 66.15812683105469 L 22.91702270507812 58.25154876708984 C 26.69985961914062 58.70240783691406 29.97686004638672 60.80276870727539 32.000244140625 63.81584930419922 L 24.97340393066406 67.521728515625 M 103.2475433349609 76.16509246826172 C 102.5327606201172 74.55958557128906 102.1368865966797 72.77812957763672 102.1258850097656 70.90869140625 C 102.1258850097656 68.7093505859375 102.6647186279297 66.65299224853516 103.6324234008789 64.83853149414062 L 110.7582626342773 69.32516479492188 C 110.5933074951172 69.83100891113281 110.4943389892578 70.38085174560547 110.4943389892578 70.95266723632812 C 110.4943389892578 71.35955047607422 110.5493240356445 71.75543212890625 110.6372985839844 72.14031219482422 L 103.2475433349609 76.16509246826172 M 34.15558624267578 70.66677093505859 L 27.55760192871094 68.84130859375 L 33.13290405273438 65.90521240234375 C 33.75971984863281 67.36776733398438 34.12260437011719 68.98429107666016 34.15558624267578 70.66677093505859 M 126.8683624267578 76.28604888916016 L 120.4902801513672 72.27227020263672 C 120.6112670898438 71.85438537597656 120.6662445068359 71.41452789306641 120.6662445068359 70.95266723632812 C 120.6662445068359 70.43582916259766 120.5782852172852 69.92999267578125 120.4353256225586 69.45713043212891 L 127.055305480957 65.96018981933594 C 127.6930999755859 67.48873138427734 128.0339965820312 69.16023254394531 128.0339965820312 70.90869140625 C 128.0339965820312 72.82209014892578 127.6161193847656 74.64755249023438 126.8683624267578 76.28604888916016 M 46.70278167724609 80.33280944824219 L 39.93984222412109 79.22215270996094 L 32.06622314453125 77.935546875 L 30.06484222412109 77.60565185546875 L 15.79098510742188 75.26945495605469 L 12.40422058105469 77.11080932617188 L 15.79098510742188 75.26945495605469 L 9.984939575195312 74.31764984130859 L 5.575302124023438 71.15061187744141 L 6.707962036132812 66.92790985107422 L 9.2371826171875 66.97189331054688 L 12.08531951904297 67.02687072753906 L 13.15198516845703 67.33477020263672 L 16.95682525634766 68.39044952392578 L 47.857421875 76.91284942626953 L 47.84642028808594 76.95683288574219 C 47.593505859375 77.48468780517578 47.04366302490234 79.760986328125 46.70278167724609 80.33280944824219 M 115.5857849121094 73.83380889892578 C 114.7830200195312 73.83380889892578 114.057243347168 73.50390625 113.5404052734375 72.98704528808594 C 113.012565612793 72.459228515625 112.6936645507812 71.74444580078125 112.6936645507812 70.94168853759766 C 112.6936645507812 70.41384887695312 112.8366241455078 69.90798950195312 113.0895385742188 69.4791259765625 C 113.1005401611328 69.45713043212891 113.1225433349609 69.43515014648438 113.133544921875 69.41314697265625 C 113.1555252075195 69.39115142822266 113.1665191650391 69.36917114257812 113.1775207519531 69.34716796875 C 113.276481628418 69.19320678710938 113.3974456787109 69.05024719238281 113.5294189453125 68.91828918457031 C 114.0572662353516 68.39044952392578 114.7720184326172 68.07154846191406 115.5747833251953 68.07154846191406 C 116.3775634765625 68.07154846191406 117.1033248901367 68.39044952392578 117.6201629638672 68.90731048583984 C 118.1480255126953 69.43515014648438 118.4669189453125 70.14993286132812 118.4669036865234 70.94168853759766 C 118.4669036865234 71.34857177734375 118.3899230957031 71.73345184326172 118.2359848022461 72.08535003662109 C 118.213981628418 72.11833190917969 118.1809844970703 72.15132904052734 118.1590042114258 72.1953125 C 118.1040191650391 72.29426574707031 118.0600204467773 72.39324951171875 118.0270385742188 72.49221038818359 C 117.9170837402344 72.66815185546875 117.7851257324219 72.83310699462891 117.6311645507812 72.98704528808594 C 117.1033248901367 73.514892578125 116.3775405883789 73.83380889892578 115.5857849121094 73.83380889892578 M 114.0902404785156 83.81877136230469 C 110.0654602050781 83.5218505859375 106.5575408935547 81.37751007080078 104.413200378418 78.24346923828125 L 111.7259674072266 74.26266479492188 C 111.8029403686523 74.36164855957031 111.9019241333008 74.44960784912109 111.9898834228516 74.54859161376953 C 112.61669921875 75.17539215087891 113.408447265625 75.63725280761719 114.2881851196289 75.86817169189453 L 114.0902404785156 83.81877136230469 M 116.4655227661133 83.7857666015625 L 116.6634674072266 75.92317199707031 C 117.6311645507812 75.7142333984375 118.4889068603516 75.23036956787109 119.1706848144531 74.54859161376953 C 119.2256851196289 74.48260498046875 119.2916641235352 74.4276123046875 119.3466415405273 74.36164855957031 L 125.6807250976562 78.35343170166016 C 123.5913391113281 81.33351135253906 120.2703628540039 83.389892578125 116.4655227661133 83.7857666015625 M 19.81596374511719 83.62081146240234 L 19.69499969482422 83.60980987548828 C 19.64002227783203 83.60980987548828 19.57404327392578 83.59883117675781 19.51906585693359 83.58782958984375 L 19.39808654785156 83.56582641601562 C 19.31011962890625 83.55483245849609 19.21114349365234 83.54383087158203 19.1121826171875 83.5218505859375 L 19.07918548583984 83.51084899902344 C 18.99122619628906 83.49984741210938 18.91424560546875 83.48884582519531 18.82626342773438 83.46685028076172 L 18.72730255126953 83.44486999511719 C 18.65032196044922 83.43386840820312 18.58434295654297 83.41187286376953 18.51836395263672 83.40087127685547 L 18.41938018798828 83.37889099121094 C 18.36440277099609 83.36788940429688 18.29842376708984 83.34590911865234 18.23244476318359 83.33490753173828 L 18.11148071289062 83.30191040039062 L 17.935546875 83.25792694091797 L 17.83656311035156 83.22492980957031 C 17.78158569335938 83.20294952392578 17.71560668945312 83.19193267822266 17.64962005615234 83.16995239257812 L 17.55066680908203 83.13697052001953 C 17.48468017578125 83.11496734619141 17.42967987060547 83.09297180175781 17.36372375488281 83.07099151611328 L 17.27574157714844 83.03800964355469 C 17.17676544189453 83.00501251220703 17.08880615234375 82.97203063964844 17.00082397460938 82.93902587890625 L 16.98982238769531 82.93902587890625 L 16.95684051513672 82.92803192138672 C 16.87985992431641 82.90602874755859 16.79188537597656 82.873046875 16.71490478515625 82.84004974365234 L 16.61594390869141 82.79606628417969 C 16.56096649169922 82.76309204101562 16.49497985839844 82.7410888671875 16.43997955322266 82.71908569335938 L 16.33002471923828 82.67510986328125 C 16.27503967285156 82.65310668945312 16.23106384277344 82.63111114501953 16.17608642578125 82.609130859375 L 16.05509948730469 82.55415344238281 L 15.52725982666016 82.29020690917969 C 15.4613037109375 82.26821136474609 15.40630340576172 82.2352294921875 15.35132598876953 82.20223236083984 L 15.26334381103516 82.15824890136719 C 15.17538452148438 82.11427307128906 15.09840393066406 82.05928802490234 15.01042175292969 82.01531219482422 L 14.92243957519531 81.96031188964844 C 14.86748504638672 81.92733001708984 14.81248474121094 81.89433288574219 14.75749969482422 81.86135101318359 L 14.64754486083984 81.79537200927734 C 14.60354614257812 81.76239013671875 14.55956268310547 81.74038696289062 14.51558685302734 81.70738983154297 L 14.27366638183594 81.55345153808594 L 13.9107666015625 81.28951263427734 L 13.69082641601562 81.11357116699219 C 13.63584136962891 81.06957244873047 13.59186553955078 81.03659057617188 13.54786682128906 81.00360870361328 L 13.45989990234375 80.93762969970703 C 13.3939208984375 80.88262939453125 13.31694030761719 80.82765197753906 13.25096130371094 80.77266693115234 C 13.21797943115234 80.73969268798828 13.18498229980469 80.71768951416016 13.15200042724609 80.6846923828125 L 12.92106628417969 80.49774932861328 L 12.71212005615234 80.31080627441406 L 12.40422058105469 80.0029296875 L 12.30524444580078 79.91494750976562 L 12.20628356933594 79.80496978759766 C 12.17328643798828 79.760986328125 12.14030456542969 79.72801208496094 12.1072998046875 79.69500732421875 L 12.01934051513672 79.60703277587891 L 11.90938568115234 79.48606872558594 C 11.85438537597656 79.42008972167969 11.78840637207031 79.35411071777344 11.73342132568359 79.28813171386719 C 11.700439453125 79.24414825439453 11.67844390869141 79.21115112304688 11.64544677734375 79.17816925048828 C 11.61246490478516 79.13418579101562 11.59046173095703 79.10118865966797 11.55747985839844 79.06820678710938 C 11.51350402832031 79.02423095703125 11.48050689697266 78.98023223876953 11.44752502441406 78.93624877929688 L 11.37054443359375 78.8482666015625 L 11.20558166503906 78.62832641601562 C 11.17259979248047 78.5843505859375 11.13960266113281 78.54035186767578 11.10662078857422 78.49636840820312 L 11.04062652587891 78.39739227294922 L 10.94166564941406 78.26544952392578 L 10.87568664550781 78.16647338867188 C 10.84270477294922 78.11148834228516 10.80970001220703 78.06751251220703 10.77672576904297 78.02352905273438 L 10.76572418212891 78.00152587890625 L 12.40422058105469 77.11080932617188 L 19.96992492675781 78.35343170166016 L 19.81596374511719 83.62081146240234 M 25.21532440185547 83.11496734619141 L 25.20429992675781 83.11496734619141 L 25.18231964111328 83.12596893310547 C 25.1053466796875 83.15895080566406 25.01737976074219 83.18094635009766 24.94040679931641 83.20294952392578 L 24.87442016601562 83.22492980957031 C 24.79743957519531 83.24691009521484 24.70946502685547 83.26892852783203 24.62150573730469 83.29090881347656 L 24.55552673339844 83.31288909912109 C 24.47854614257812 83.33489227294922 24.40156555175781 83.34588623046875 24.3245849609375 83.36788940429688 L 24.28060150146484 83.37889099121094 C 24.192626953125 83.40087127685547 24.10466003417969 83.41187286376953 24.01668548583984 83.43386840820312 L 23.95070648193359 83.44486999511719 C 23.86272430419922 83.46687316894531 23.77476501464844 83.48884582519531 23.68678283691406 83.49984741210938 L 23.67578125 83.49984741210938 C 23.57680511474609 83.51084899902344 23.48884582519531 83.53285217285156 23.40086364746094 83.54384613037109 L 23.31290435791016 83.55483245849609 C 23.22492218017578 83.56584930419922 23.13694000244141 83.57682800292969 23.04898071289062 83.58782958984375 L 23.00498199462891 83.58782958984375 C 22.91699981689453 83.59883117675781 22.84004211425781 83.60980987548828 22.75205993652344 83.62081146240234 L 22.68608093261719 83.63181304931641 C 22.58712005615234 83.64280700683594 22.4991455078125 83.64280700683594 22.40018463134766 83.65380859375 L 22.34518432617188 83.65380859375 L 22.21322631835938 83.66481018066406 L 22.33420562744141 78.73831176757812 L 30.31776428222656 80.04690551757812 C 30.22978210449219 80.13487243652344 30.15282440185547 80.21185302734375 30.07584381103516 80.28883361816406 C 29.94388580322266 80.4097900390625 29.81192016601562 80.53076934814453 29.66896057128906 80.6517333984375 L 29.61398315429688 80.69570922851562 C 29.5260009765625 80.76171112060547 29.43802642822266 80.83866882324219 29.35005950927734 80.90464782714844 L 29.32806396484375 80.9156494140625 C 29.27308654785156 80.94863128662109 29.22910308837891 80.99263000488281 29.18510437011719 81.02561187744141 L 29.15212249755859 81.05860900878906 C 29.06414031982422 81.12457275390625 28.98715972900391 81.1795654296875 28.89920043945312 81.24555206298828 L 28.84422302246094 81.27852630615234 L 28.66826629638672 81.41049194335938 C 28.60227966308594 81.46549224853516 28.52530670166016 81.50946807861328 28.44832611083984 81.564453125 L 28.37134552001953 81.60842895507812 L 28.23940277099609 81.6964111328125 C 28.18440246582031 81.72938537597656 28.12942504882812 81.76239013671875 28.07444000244141 81.79537200927734 L 27.95348358154297 81.87235260009766 L 27.843505859375 81.93833160400391 C 27.78852081298828 81.9603271484375 27.74454498291016 81.99330902099609 27.7005615234375 82.01531219482422 C 27.64558410644531 82.04830932617188 27.59058380126953 82.07028961181641 27.53560638427734 82.10328674316406 L 27.29368591308594 82.2352294921875 C 27.23870086669922 82.26822662353516 27.18372344970703 82.29022979736328 27.12872314453125 82.32321166992188 L 26.99676513671875 82.38919067382812 L 26.87580108642578 82.44416809082031 C 26.80982208251953 82.4771728515625 26.74384307861328 82.51014709472656 26.67786407470703 82.54315185546875 L 26.58990478515625 82.58712768554688 L 26.33698272705078 82.69709014892578 C 26.26000213623047 82.73008728027344 26.19402313232422 82.75209045410156 26.11704254150391 82.78507232666016 L 26.02906036376953 82.81806945800781 C 25.96308135986328 82.85105133056641 25.90810394287109 82.873046875 25.84212493896484 82.89502716064453 L 25.77614593505859 82.91703033447266 C 25.69916534423828 82.95001220703125 25.62218475341797 82.98300933837891 25.54520416259766 83.00501251220703 L 25.45724487304688 83.03798675537109 C 25.38026428222656 83.05998992919922 25.29228210449219 83.09297180175781 25.21532440185547 83.11496734619141 M 15.80218505859375 75.26336669921875 L 15.79098510742188 75.26945495605469 L 15.80218505859375 75.26336669921875 M 19.85993957519531 75.93417358398438 L 20.71768188476562 76.07711029052734 L 19.85993957519531 75.93417358398438 M 13.17398071289062 80.69570922851562 C 13.19043731689453 80.712158203125 13.20688629150391 80.72586822509766 13.22333526611328 80.73957824707031 L 13.17398071289062 80.69570922851562 M 13.22333526611328 80.73957824707031 L 13.27296447753906 80.78369140625 C 13.25641632080078 80.76714324951172 13.23987579345703 80.75336456298828 13.22333526611328 80.73957824707031 M 81.36167907714844 -2.022972106933594 L 81.36187744140625 -2.022972106933594 C 81.43782043457031 -2.022972106933594 81.51493835449219 -2.020492553710938 81.59107971191406 -2.015609741210938 C 83.54106140136719 -1.889007568359375 85.02452087402344 -0.2012710571289062 84.89964294433594 1.746726989746094 L 84.71334838867188 4.642189025878906 L 84.82206726074219 4.708457946777344 L 85.16569519042969 4.911117553710938 C 85.27284240722656 4.966804504394531 85.36508178710938 5.026237487792969 85.4425048828125 5.082756042480469 C 86.5498046875 5.728073120117188 87.87872314453125 6.574287414550781 88.63996124267578 8.884971618652344 C 88.78504943847656 9.320991516113281 88.89155578613281 9.799041748046875 88.96548461914062 10.34620666503906 L 88.96897888183594 10.37342834472656 C 89.02646636962891 10.84782409667969 89.04985046386719 11.33271026611328 89.03848266601562 11.81520843505859 L 89.03848266601562 19.345703125 L 92.51000213623047 15.29733276367188 C 93.11940002441406 14.59423065185547 94.00118255615234 14.19094848632812 94.92928314208984 14.19088745117188 C 95.69122314453125 14.19088745117188 96.42752075195312 14.46540832519531 97.002685546875 14.9638671875 L 97.06062316894531 15.01455688476562 L 100.4490051269531 17.80052947998047 C 101.7762985229492 18.89701080322266 101.9934539794922 20.84003448486328 100.9647979736328 22.19091033935547 L 100.9127197265625 22.26908874511719 L 98.15731048583984 25.40977478027344 C 98.40158081054688 25.63378143310547 98.61294555664062 25.89778900146484 98.78159332275391 26.19573211669922 L 98.81228637695312 26.24180603027344 L 99.10214233398438 26.79517364501953 C 99.98765563964844 25.970458984375 100.9626617431641 25.29337310791016 101.8299865722656 24.69108581542969 L 101.8498229980469 24.67732238769531 C 102.1624908447266 24.45845794677734 102.4855270385742 24.23232269287109 102.7537689208984 24.03647613525391 C 104.193244934082 22.96743011474609 105.5832672119141 22.25796508789062 106.8854370117188 21.92770385742188 C 107.4958190917969 21.7708740234375 108.1021957397461 21.69130706787109 108.6876831054688 21.69129180908203 C 109.6380233764648 21.69129180908203 110.5363845825195 21.89698791503906 111.3579025268555 22.30268859863281 L 111.3755798339844 22.31153106689453 C 112.7049026489258 22.98441314697266 113.7368621826172 24.15126800537109 114.35986328125 25.68596649169922 C 114.8731079101562 26.94824981689453 115.133544921875 28.47443008422852 115.133544921875 30.22108840942383 L 115.133544921875 34.59774780273438 C 115.133544921875 34.67428207397461 115.133544921875 34.81195831298828 115.1134185791016 34.97919845581055 C 114.9633178710938 37.22104644775391 114.4294586181641 38.94042205810547 113.4823226928711 40.23331069946289 C 112.8594436645508 41.07976913452148 112.0844650268555 41.7157096862793 111.1764068603516 42.12691116333008 C 110.3260269165039 42.51198577880859 109.3843383789062 42.68255996704102 108.3821640014648 42.63240814208984 L 108.3735809326172 42.6319694519043 C 108.0694580078125 42.6154670715332 107.7604141235352 42.57765579223633 107.4467926025391 42.5186653137207 L 111.0684204101562 49.22854232788086 C 112.3857421875 48.99217224121094 113.7293243408203 48.8727912902832 115.0799407958984 48.8727912902832 C 118.0558624267578 48.8727912902832 120.9435806274414 49.45586776733398 123.6629257202148 50.60583114624023 C 126.2886428833008 51.71619033813477 128.646240234375 53.3054313659668 130.6702270507812 55.32941055297852 C 132.6941986083984 57.35338973999023 134.283447265625 59.71099090576172 135.393798828125 62.33668899536133 C 136.5437622070312 65.0560302734375 137.1268463134766 67.94377136230469 137.1268463134766 70.91969299316406 C 137.1268463134766 73.89560699462891 136.5437622070312 76.78333282470703 135.393798828125 79.50267028808594 C 134.283447265625 82.12838745117188 132.6941986083984 84.48599243164062 130.6702270507812 86.50997161865234 C 128.646240234375 88.53395080566406 126.2886428833008 90.12319183349609 123.6629409790039 91.23355102539062 C 120.943603515625 92.38350677490234 118.0558624267578 92.96659088134766 115.079963684082 92.96659088134766 C 112.1040420532227 92.96659088134766 109.2163009643555 92.38350677490234 106.4969635009766 91.23355102539062 C 103.8712615966797 90.12319183349609 101.5136642456055 88.53395080566406 99.48968505859375 86.50997161865234 C 97.4656982421875 84.48599243164062 95.87646484375 82.12838745117188 94.76609802246094 79.50267028808594 C 93.61614227294922 76.78333282470703 93.03306579589844 73.89560699462891 93.03306579589844 70.91969299316406 C 93.03306579589844 67.37496948242188 93.89336395263672 63.85195159912109 95.52096557617188 60.73146820068359 C 96.83071136474609 58.22040557861328 98.63719177246094 55.96224594116211 100.7980041503906 54.12187957763672 L 97.894775390625 48.41421508789062 L 88.27218627929688 77.35134887695312 L 83.79048156738281 77.35134887695312 C 83.32147216796875 79.26349639892578 82.62159729003906 80.87627410888672 81.70326232910156 82.15766906738281 C 80.36018371582031 84.03237152099609 78.57827758789062 85.24582672119141 76.40728759765625 85.76410675048828 C 75.85832214355469 85.89480590820312 75.17681884765625 85.95822906494141 74.32270812988281 85.95822906494141 C 71.52169799804688 85.95822906494141 67.19094085693359 85.26970672607422 64.02873992919922 84.7669677734375 L 63.90962219238281 84.74800872802734 C 62.97129821777344 84.59503173828125 62.10166931152344 84.46176147460938 61.5225830078125 84.38220977783203 L 50.43714904785156 82.89573669433594 C 49.63456726074219 84.01427459716797 48.32898712158203 84.71675109863281 46.88682556152344 84.71675109863281 C 46.65396118164062 84.71675109863281 46.418701171875 84.69792938232422 46.18756103515625 84.66078948974609 L 46.18146514892578 84.6597900390625 L 39.65612030029297 83.59066009521484 C 38.92256164550781 84.60331726074219 38.09416961669922 85.56366729736328 37.18312072753906 86.45667266845703 C 35.12982177734375 88.46707153320312 32.73714447021484 90.04541015625 30.07073974609375 91.14865112304688 C 27.31398010253906 92.28926849365234 24.38914489746094 92.86760711669922 21.37750244140625 92.86760711669922 C 18.36704254150391 92.86760711669922 15.4434814453125 92.28920745849609 12.68804168701172 91.14849090576172 C 10.02664184570312 90.04670715332031 7.633399963378906 88.46913146972656 5.574798583984375 86.45952606201172 C 3.511138916015625 84.43887329101562 1.891845703125 82.08865356445312 0.7596893310546875 79.4720458984375 C -0.414794921875 76.75766754150391 -1.010299682617188 73.87654876708984 -1.010299682617188 70.90870666503906 C -1.010299682617188 67.94087219238281 -0.414794921875 65.05975341796875 0.7596893310546875 62.34536743164062 C 1.891845703125 59.72875213623047 3.511138916015625 57.3785285949707 5.572616577148438 55.35998916625977 C 5.98040771484375 54.96073150634766 6.4017333984375 54.57838821411133 6.835845947265625 54.21352386474609 L -2.972335815429688 54.08876800537109 L -1.849014282226562 51.36408996582031 C -0.7199554443359375 48.62548828125 1.172988891601562 46.24636840820312 3.777206420898438 44.29280853271484 C 4.887939453125 43.45957183837891 6.120834350585938 42.70912551879883 7.467308044433594 42.04560470581055 C 6.175552368164062 41.00930404663086 5.887542724609375 39.12792587280273 6.846221923828125 37.74631118774414 L 10.45317840576172 32.54962921142578 C 11.04898834228516 31.66130828857422 12.04259490966797 31.13198852539062 13.11774444580078 31.13193130493164 C 13.19568634033203 31.13193130493164 13.27464294433594 31.13481140136719 13.35252380371094 31.14048767089844 L 13.37576293945312 31.14233016967773 L 26.16256713867188 32.22522735595703 C 30.04830169677734 32.29228591918945 32.80272674560547 33.06442642211914 35.71808624267578 33.88161087036133 C 36.82696533203125 34.19411087036133 38.12516021728516 34.55414962768555 39.53512573242188 34.88204956054688 C 42.7642822265625 35.62818908691406 45.38732147216797 36.01052856445312 47.78720092773438 36.08464813232422 C 48.09049987792969 36.09439086914062 48.3917236328125 36.09928894042969 48.68502044677734 36.09928894042969 C 50.93065643310547 36.09928894042969 52.96298980712891 35.81955718994141 54.88289642333984 35.24520492553711 C 55.73281860351562 34.50093078613281 56.54267120361328 33.83192825317383 57.34898376464844 33.20776748657227 C 58.34490203857422 32.42943954467773 59.382080078125 31.68424224853516 60.51974487304688 30.92966842651367 C 63.69218444824219 28.8147087097168 66.76766204833984 27.27124786376953 69.91802215576172 26.21370697021484 C 70.76084899902344 25.93276977539062 71.60175323486328 25.68872833251953 72.44448852539062 25.48091888427734 C 71.40837860107422 24.74063110351562 70.73184204101562 23.52816009521484 70.73184204101562 22.16053009033203 C 70.73184204101562 19.91171264648438 72.56138610839844 18.08216857910156 74.81020355224609 18.08216857910156 L 81.94842529296875 18.08216857910156 L 81.94842529296875 13.87480163574219 C 81.58588409423828 14.00064086914062 81.19760131835938 14.06887054443359 80.79472351074219 14.06887054443359 C 80.71878051757812 14.06887054443359 80.64166259765625 14.06639099121094 80.56552124023438 14.06150817871094 C 78.61553955078125 13.93490600585938 77.13210296630859 12.24716949462891 77.2569580078125 10.29917144775391 L 77.82870483398438 1.29412841796875 C 77.94953918457031 -0.5670089721679688 79.5013427734375 -2.022789001464844 81.36167907714844 -2.022972106933594 Z M 108.3623809814453 34.57235717773438 L 108.3623809814453 30.24306869506836 C 108.3623809814453 29.45559310913086 108.2889633178711 28.93782424926758 108.2113952636719 28.6106071472168 C 107.8960266113281 28.7408561706543 107.4199829101562 28.99348449707031 106.7618255615234 29.48326873779297 L 106.7409210205078 29.49861145019531 C 106.502685546875 29.67115020751953 106.2644195556641 29.83583068847656 106.0121841430664 30.01016998291016 C 105.9064407348633 30.08327102661133 105.7986221313477 30.15779113769531 105.6887664794922 30.23434829711914 L 105.6321029663086 30.27389144897461 C 104.9756622314453 30.73176956176758 104.2968597412109 31.20524978637695 103.776481628418 31.67575073242188 C 103.4701538085938 31.95272064208984 103.3010864257812 32.15637588500977 103.2089767456055 32.28940963745117 C 103.2211990356445 32.29839706420898 103.2329406738281 32.30702590942383 103.2440795898438 32.31520843505859 L 106.6096649169922 34.78989028930664 C 107.2975006103516 35.29348373413086 107.8324737548828 35.58834075927734 108.2054824829102 35.74849319458008 C 108.2678756713867 35.48622894287109 108.3298950195312 35.10686874389648 108.3623809814453 34.57235717773438 Z M 88.71073913574219 33.46457672119141 C 87.69644165039062 32.75764846801758 86.59651184082031 32.20183181762695 85.43064880371094 31.80794906616211 L 85.42095947265625 31.80464935302734 C 83.89150238037109 31.27920913696289 82.21546173095703 30.9974479675293 80.43940734863281 30.96717071533203 L 80.43314361572266 30.96706771850586 C 80.25862121582031 30.96355056762695 80.08164215087891 30.96175003051758 79.90711975097656 30.96173095703125 C 77.16108703613281 30.96170806884766 74.55104064941406 31.38996887207031 71.92806243896484 32.27095031738281 C 69.32736206054688 33.13787078857422 66.75066375732422 34.43854904174805 64.04634094238281 36.2487678527832 L 64.03890228271484 36.25373077392578 C 63.13880157470703 36.85041046142578 62.20464324951172 37.52639007568359 61.26235961914062 38.26288986206055 L 61.25232696533203 38.27069091796875 C 60.81141662597656 38.61080169677734 60.39762878417969 38.94222259521484 60.003662109375 39.2709846496582 L 60.01803588867188 39.34547424316406 L 60.35952758789062 40.78501510620117 L 86.20548248291016 40.87823104858398 L 86.29584503173828 40.88644790649414 C 86.75559997558594 40.92820358276367 87.15337371826172 40.90937423706055 87.46591186523438 40.83119964599609 C 87.64354705810547 40.77548599243164 87.79093933105469 40.69602966308594 87.90435028076172 40.59475326538086 C 88.96708679199219 39.61967849731445 88.88368988037109 37.40936279296875 88.80276489257812 35.44767761230469 L 88.79026794433594 35.27912902832031 L 88.71073913574219 33.46457672119141 Z M 25.94229125976562 38.61013031005859 L 25.77936553955078 38.61013031005859 L 14.67407989501953 37.66712951660156 L 14.41764068603516 38.03650283813477 C 20.67589569091797 40.17055892944336 28.21131134033203 41.72726058959961 35.50788116455078 42.37049102783203 C 38.05248260498047 42.59408950805664 40.53810119628906 42.70748901367188 42.8951416015625 42.70748901367188 C 44.79729461669922 42.70748901367188 46.61430358886719 42.63244247436523 48.32009124755859 42.48543167114258 C 48.07552337646484 42.48255920410156 47.82865905761719 42.47702789306641 47.58236694335938 42.46886825561523 C 44.76792144775391 42.37709045410156 41.75395965576172 41.94567108154297 38.09820556640625 41.11120986938477 C 36.55127716064453 40.75600051879883 35.21769714355469 40.38232803344727 33.9842529296875 40.02994537353516 C 31.34077453613281 39.28514862060547 29.05690002441406 38.6419563293457 25.94229125976562 38.61013031005859 Z M 24.53959655761719 49.16667938232422 C 23.43395233154297 48.98115158081055 22.30786895751953 48.88679122924805 21.16566467285156 48.88679122924805 C 19.47051239013672 48.88679122924805 17.78470611572266 49.11349487304688 16.1494140625 49.55157470703125 C 17.85072326660156 49.15145111083984 19.59889984130859 48.94976806640625 21.37750244140625 48.94976806640625 C 22.44358825683594 48.94976806640625 23.49891662597656 49.02232360839844 24.53959655761719 49.16667938232422 Z M 83.48687744140625 51.96006774902344 L 75.5186767578125 51.96006774902344 L 76.25257873535156 59.24263000488281 L 81.77442932128906 59.24263000488281 L 83.48687744140625 51.96006774902344 Z M 59.44110870361328 58.16495132446289 L 60.07839965820312 52.66259384155273 L 51.4110107421875 52.78109741210938 L 53.83352661132812 57.97264862060547 C 53.86000823974609 58.03021240234375 53.89109802246094 58.09779739379883 53.92284393310547 58.16495132446289 L 59.44110870361328 58.16495132446289 Z M 112.5396881103516 64.55825805664062 L 112.7060089111328 60.22200012207031 C 111.0115280151367 60.59756088256836 109.4332122802734 61.37144470214844 108.0955276489258 62.48154067993164 L 111.922004699707 64.89014434814453 C 112.1218032836914 64.76941680908203 112.3278961181641 64.65867614746094 112.5396881103516 64.55825805664062 Z M 18.30607604980469 64.20712280273438 L 18.447265625 60.57640075683594 L 18.35153198242188 60.59765625 C 18.31831359863281 60.60725021362305 18.28653717041016 60.61660766601562 18.27074432373047 60.62187194824219 L 18.15283966064453 60.66114807128906 L 18.10277557373047 60.67116546630859 C 18.08300018310547 60.67747497558594 18.06476593017578 60.68317413330078 18.04822540283203 60.68834686279297 C 18.03632354736328 60.69206237792969 18.02439117431641 60.6956672668457 18.01249694824219 60.69957733154297 L 17.89649963378906 60.73928833007812 C 17.87030029296875 60.74916839599609 17.84342193603516 60.75905609130859 17.81650543212891 60.76885223388672 C 17.80551910400391 60.77285003662109 17.79451751708984 60.77675628662109 17.78398132324219 60.78074645996094 L 17.27274322509766 60.98523712158203 L 17.18360137939453 61.02465057373047 C 17.15944671630859 61.03501129150391 17.13450622558594 61.04541015625 17.10914611816406 61.05595016479492 C 17.10504150390625 61.05764770507812 17.10089874267578 61.05934906005859 17.09674072265625 61.06106185913086 L 17.05850219726562 61.08290863037109 L 16.90888214111328 61.14939117431641 L 16.72884368896484 61.23789215087891 L 16.64111328125 61.27777099609375 L 16.57477569580078 61.31093597412109 L 16.32874298095703 61.4451904296875 L 16.16255950927734 61.50057220458984 L 16.08511352539062 61.5392951965332 C 16.07464599609375 61.54494476318359 16.06401824951172 61.55075073242188 16.05306243896484 61.55693054199219 L 15.84725952148438 61.67723083496094 L 15.40968322753906 61.96735000610352 L 15.30422210693359 62.0322380065918 L 14.95557403564453 62.27533721923828 L 14.90829467773438 62.31170654296875 L 14.62136077880859 62.55140686035156 C 14.50923156738281 62.64111328125 14.3890380859375 62.74404525756836 14.26251983642578 62.85349273681641 L 14.93446350097656 63.27470779418945 L 18.30607604980469 64.20712280273438 Z M 122.8730239868164 63.20850372314453 C 121.7912521362305 62.11449432373047 120.4913558959961 61.259033203125 119.0629425048828 60.70070648193359 L 118.912727355957 64.70624542236328 C 119.0940551757812 64.80274200439453 119.2711029052734 64.90704345703125 119.4431304931641 65.01871490478516 L 122.8730239868164 63.20850372314453 Z M 28.89000701904297 63.19505310058594 C 27.73606109619141 62.07597351074219 26.34754943847656 61.23014068603516 24.82575988769531 60.71964263916016 L 24.67155456542969 64.825927734375 C 24.85317993164062 64.92266082763672 25.03058624267578 65.02731323242188 25.20307159423828 65.13949584960938 L 28.89000701904297 63.19505310058594 Z M 46.71392059326172 72.04364776611328 C 45.3427734375 68.26197814941406 43.69807434082031 64.88570404052734 41.82273101806641 61.95681381225586 C 41.88145446777344 62.08564758300781 41.93900299072266 62.2152099609375 41.99532318115234 62.34536743164062 C 43.16978454589844 65.05973052978516 43.76528167724609 67.94087219238281 43.76528167724609 70.90870666503906 C 43.76528167724609 71.01406860351562 43.76443481445312 71.11968231201172 43.76274108886719 71.22573852539062 L 46.71392059326172 72.04364776611328 Z M 108.5263061523438 70.28326416015625 L 104.5706329345703 67.79266357421875 C 104.2754287719727 68.78971099853516 104.1263427734375 69.83003234863281 104.1258850097656 70.90366363525391 C 104.131103515625 71.71006774902344 104.2189483642578 72.49974822998047 104.3881378173828 73.26646423339844 L 108.4947891235352 71.02980804443359 C 108.4944915771484 71.00408935546875 108.4943389892578 70.97836303710938 108.4943389892578 70.95266723632812 C 108.4943389892578 70.72956085205078 108.5050277709961 70.50624084472656 108.5263061523438 70.28326416015625 Z M 125.7860336303711 73.24184417724609 C 125.9509658813477 72.4814453125 126.0340042114258 71.70197296142578 126.0340042114258 70.90869140625 C 126.0340042114258 70.21204376220703 125.9709930419922 69.52814483642578 125.8457641601562 68.86101531982422 L 122.6538162231445 70.54713439941406 C 122.6620941162109 70.682861328125 122.6662445068359 70.81805419921875 122.6662445068359 70.95266723632812 C 122.6662445068359 71.06068420410156 122.6639556884766 71.16785430908203 122.6593780517578 71.27421569824219 L 125.7860336303711 73.24184417724609 Z M 11.78355407714844 69.02140808105469 L 8.235000610351562 68.95475769042969 L 7.865325927734375 70.33294677734375 L 10.77096557617188 72.41980743408203 L 20.18833160400391 73.96361541748047 L 20.18870544433594 73.96137237548828 L 21.06282043457031 74.10697937011719 L 30.38766479492188 75.63186645507812 L 32.39150238037109 75.96217346191406 L 40.26238250732422 77.24832916259766 L 43.45104217529297 77.77199554443359 L 16.42500305175781 70.31845092773438 L 12.59732055664062 69.25630950927734 L 11.78355407714844 69.02140808105469 Z M 116.4420318603516 71.16824340820312 C 116.4585647583008 71.0994873046875 116.4669036865234 71.02371978759766 116.4669036865234 70.94168853759766 C 116.4669036865234 70.64479064941406 116.3250274658203 70.44058990478516 116.2059783935547 70.32154846191406 C 116.1125793457031 70.2281494140625 115.9064636230469 70.07154846191406 115.5747833251953 70.07154846191406 C 115.3291473388672 70.07154846191406 115.1167831420898 70.15934753417969 114.9436416625977 70.33251190185547 C 114.9108276367188 70.36531066894531 114.8894882202148 70.39000701904297 114.8765411376953 70.40618896484375 C 114.8509521484375 70.44870758056641 114.8202819824219 70.49639892578125 114.784049987793 70.54738616943359 C 114.7254943847656 70.66625213623047 114.6936645507812 70.80408477783203 114.6936645507812 70.94168853759766 C 114.6936645507812 71.18733215332031 114.7814407348633 71.39967346191406 114.9545822143555 71.57280731201172 C 115.0521011352539 71.67031097412109 115.2636871337891 71.83380889892578 115.5857849121094 71.83380889892578 C 115.8245010375977 71.83380889892578 116.0486602783203 71.74112701416016 116.2169418334961 71.57283020019531 C 116.2317047119141 71.55807495117188 116.2455062866211 71.54341888427734 116.258415222168 71.52879333496094 C 116.3003005981445 71.43475341796875 116.3463745117188 71.34162902832031 116.3964233398438 71.24993133544922 C 116.4115982055664 71.22138214111328 116.4268341064453 71.19418334960938 116.4420318603516 71.16824340820312 Z M 112.2542724609375 77.20526885986328 C 111.9711303710938 77.05452728271484 111.6982650756836 76.88457489013672 111.4378280639648 76.6966552734375 L 107.5160369873047 78.83152770996094 C 108.8183288574219 80.08450317382812 110.4062805175781 80.98766326904297 112.1482238769531 81.46511077880859 L 112.2542724609375 77.20526885986328 Z M 122.6638793945312 78.81621551513672 L 119.5242080688477 76.83757019042969 C 119.2378005981445 77.0306396484375 118.9384231567383 77.20198822021484 118.6281585693359 77.35048675537109 L 118.5284805297852 81.30998229980469 C 120.0727767944336 80.80059051513672 121.4864349365234 79.94853973388672 122.6638793945312 78.81621551513672 Z M 75.80159759521484 77.329345703125 L 65.47428131103516 77.329345703125 C 68.16879272460938 77.75812530517578 72.32132720947266 78.40617370605469 74.20362854003906 78.40617370605469 C 74.51555633544922 78.40617370605469 74.64610290527344 78.38745880126953 74.67079925537109 78.38339233398438 C 74.90745544433594 78.32537078857422 75.21890258789062 78.19613647460938 75.55192565917969 77.7340087890625 C 75.63827514648438 77.61373901367188 75.72160339355469 77.47855377197266 75.80159759521484 77.329345703125 Z M 17.919677734375 80.04348754882812 L 14.94382476806641 79.55471801757812 L 15.12427520751953 79.69906616210938 L 15.39968109130859 79.89938354492188 L 15.67060852050781 80.07365417480469 C 15.68836212158203 80.08489990234375 15.70946502685547 80.09849548339844 15.73317718505859 80.11436462402344 L 16.01044464111328 80.28182220458984 C 16.07420349121094 80.31678771972656 16.12666320800781 80.34825897216797 16.16584014892578 80.37177276611328 C 16.17130279541016 80.37503814697266 16.17673492431641 80.37834167480469 16.18220520019531 80.38160705566406 L 16.97130584716797 80.773681640625 C 17.00373077392578 80.78730010986328 17.03470611572266 80.80086517333984 17.06560516357422 80.81460571289062 L 17.08114624023438 80.82149505615234 L 17.19308471679688 80.86607360839844 C 17.23996734619141 80.88404083251953 17.31515502929688 80.91286468505859 17.40594482421875 80.95492553710938 L 17.70320129394531 81.06642913818359 C 17.77079772949219 81.09177398681641 17.83015441894531 81.11403656005859 17.88780975341797 81.13375854492188 L 17.919677734375 80.04348754882812 Z" stroke="none" fill="#fff"/>
      </g>
    </g>
  </g>
</svg>
