<svg xmlns="http://www.w3.org/2000/svg" width="38.315" height="38.5" viewBox="0 0 38.315 38.5">
  <path id="_11305034451656048291" data-name="11305034451656048291" d="M42.238,23a19.085,19.085,0,0,1,0,38.17H42.23a19.06,19.06,0,0,1-9.117-2.322L23,61.5l2.707-9.886A19.089,19.089,0,0,1,42.238,23Zm-.006,34.947h.006a15.858,15.858,0,1,0-13.433-7.431l.377.6-1.6,5.851,6-1.574.579.344A15.836,15.836,0,0,0,42.232,57.947ZM47.679,44.52c.437.159,2.781,1.312,3.257,1.551.092.046.178.088.258.126a1.545,1.545,0,0,1,.655.431,3.987,3.987,0,0,1-.278,2.267c-.4,1.113-2.3,2.129-3.217,2.266a6.533,6.533,0,0,1-3-.189,27.3,27.3,0,0,1-2.718-1c-4.471-1.931-7.491-6.264-8.06-7.08-.04-.057-.067-.1-.083-.117l0,0a9.261,9.261,0,0,1-1.945-4.929,5.279,5.279,0,0,1,1.574-3.876l.094-.1a1.751,1.751,0,0,1,1.271-.6c.318,0,.636,0,.913.017.034,0,.07,0,.107,0,.278,0,.624,0,.966.817.132.317.325.787.529,1.283.41,1,.861,2.1.941,2.256a.878.878,0,0,1,.039.835l-.068.137a2.715,2.715,0,0,1-.409.658c-.079.093-.161.192-.243.292-.164.2-.329.4-.472.543-.239.238-.487.5-.209.973a14.387,14.387,0,0,0,2.652,3.3,12.3,12.3,0,0,0,3.518,2.224c.131.057.238.1.316.142.476.239.754.2,1.033-.119s1.192-1.392,1.509-1.869S47.242,44.361,47.679,44.52Z" transform="translate(-23 -23)" fill="#fff" fill-rule="evenodd"/>
</svg>
