<svg xmlns="http://www.w3.org/2000/svg" width="34.272" height="24" viewBox="0 0 34.272 24">
  <g id="Page-1" transform="translate(0 0)">
    <g id="Dribbble-Light-Preview" transform="translate(0)">
      <g id="icons">
        <path id="youtube-_168_" data-name="youtube-[#168]" d="M257.688,7298.435v-9.63c3.415,1.611,6.059,3.17,9.185,4.832-2.579,1.439-5.77,3.033-9.185,4.8m19.026-14.41a4.5,4.5,0,0,0-2.661-1.578c-3.141-.6-22.735-.6-25.874,0a4.54,4.54,0,0,0-2.276,1.149c-2.761,2.57-1.9,16.313-1.23,18.541a4.983,4.983,0,0,0,1.1,2.125,4.443,4.443,0,0,0,2.313,1.2c2.586.531,15.909.84,25.913.086a4.552,4.552,0,0,0,2.382-1.233c2.553-2.554,2.379-17.068.334-20.289" transform="translate(-244 -7281.998)" fill="#fff" fill-rule="evenodd"/>
      </g>
    </g>
  </g>
</svg>
