<svg id="wiping-icon" xmlns="http://www.w3.org/2000/svg" width="73.024" height="51.425" viewBox="0 0 73.024 51.425">
  <path id="Path_39" data-name="Path 39" d="M.947,18.347c-1.272-2.7-1.278-5.105.119-7.179C2.57,9.23,5.292,7.9,9.3,7.227c6.9-.059,7.649-6,14.519-7.084,7.667-1.212,7.239,5.783,15.488,4.374,2.888-.3,7.1,2.859,8.32,7.69,1.2,4.754-.761,5.949-1.759,10.02A23.672,23.672,0,0,0,45.61,31.3c.22,2.645-.945,4.493-3.708,5.414-.909.392-1.825.767-2.734,1.117.03-1,.018-1.961-.018-2.847h-.006a3.287,3.287,0,0,0-.042-.416V28.3a5.864,5.864,0,0,0-5.842-5.842h-.155a5.645,5.645,0,0,0-1.932.345l-.048-.048A5.828,5.828,0,0,0,27,21.033h-.16A5.549,5.549,0,0,0,25,21.342a4.088,4.088,0,0,0-.321-.321A6.1,6.1,0,0,0,20.5,19.411a5.391,5.391,0,0,0-.987.089,5.742,5.742,0,0,0-.88-1.117,5.834,5.834,0,0,0-3.691-1.7,3.576,3.576,0,0,0-.571-.048,5.658,5.658,0,0,0-3.685,1.379c-.113.089-.22.184-.327.285A5.66,5.66,0,0,0,8.7,22.311v2.342a8.26,8.26,0,0,0-4.82-1.587c-1-1.682-2.11-3.073-2.93-4.719Zm49.708,16.73a1.468,1.468,0,0,1-.03-2.936,25.3,25.3,0,0,1,5.331.434,17.576,17.576,0,0,1,6.252,2.508,1.464,1.464,0,1,1-1.6,2.449A14.613,14.613,0,0,0,55.4,35.457a23.1,23.1,0,0,0-4.743-.38ZM50.126,23.44a1.469,1.469,0,0,1,.505-2.894,31.692,31.692,0,0,1,9.491,2.966A29.553,29.553,0,0,1,67.362,29.1a1.467,1.467,0,1,1-2.068,2.08,27.228,27.228,0,0,0-6.526-5.069,29.248,29.248,0,0,0-8.641-2.668Zm2.015-11.417a1.466,1.466,0,0,1,.47-2.894A29.78,29.78,0,0,1,63.57,13.248a35.309,35.309,0,0,1,9.146,8.308A1.469,1.469,0,1,1,70.4,23.369a32.464,32.464,0,0,0-8.374-7.631,26.93,26.93,0,0,0-9.889-3.714Zm-37.8,8.16h.16a2.339,2.339,0,0,1,2.324,2.324v8.837h1.51V25.092a2.169,2.169,0,0,1,2.157-2.157,2.336,2.336,0,0,1,2.484,2.324V31.5l.071-.03h1.628V26.721a2.169,2.169,0,0,1,2.157-2.157H27a2.339,2.339,0,0,1,2.324,2.324v4.344h.012l1.611-.012V28.147A2.169,2.169,0,0,1,33.1,25.99h.16a2.339,2.339,0,0,1,2.324,2.324v6.508a1.634,1.634,0,0,1-.012.238l.071.059c.149,4.184-.149,10.187-3.6,13.188a12.492,12.492,0,0,1-10.377,2.942c-4.838-.767-7.364-3.388-9.658-7.554L2.938,29.288c-.475-1.111-.416-1.86.059-2.353,2.038-1.331,5.384,1.492,9.081,5.486l.131-.03V22.311a2.169,2.169,0,0,1,2.157-2.157l-.024.03Z" transform="translate(-0.005 -0.001)" fill-rule="evenodd"/>
</svg>
