<svg xmlns="http://www.w3.org/2000/svg" width="37.063" height="61.04" viewBox="0 0 37.063 61.04">
  <g id="_14655891761535698998" data-name="14655891761535698998" transform="translate(0.5 0.5)">
    <path id="Path_40" data-name="Path 40" d="M46.887,48.64l10.076-16.2a.918.918,0,0,0,.082-.165,18.005,18.005,0,1,0-30.69,0,1.041,1.041,0,0,0,.072.145L36.142,48.68c-7.541,1.066-12.5,4.167-12.5,7.928,0,4.661,7.92,8.311,18.031,8.311S59.7,61.269,59.7,56.608C59.7,52.829,54.514,49.659,46.887,48.64ZM28.166,31.369a15.989,15.989,0,1,1,27.068,0,.97.97,0,0,0-.083.167L44.505,48.652c-.16.245-.192.3-.387.622L41.43,53.6,28.256,31.55A1.014,1.014,0,0,0,28.166,31.369ZM41.674,62.9c-9.438,0-16.015-3.318-16.015-6.295,0-2.7,4.953-5.248,11.615-6.036l3.273,5.478a1.007,1.007,0,0,0,.856.491h.009a1.009,1.009,0,0,0,.856-.476l3.441-5.532c6.768.733,11.978,3.344,11.978,6.075C57.688,59.586,51.111,62.9,41.674,62.9Z" transform="translate(-23.642 -4.88)" fill="#fff" stroke="#fff" stroke-width="1"/>
    <path id="Path_41" data-name="Path 41" d="M53.824,28.476a6.547,6.547,0,1,0-6.547,6.547A6.554,6.554,0,0,0,53.824,28.476Zm-11.077,0a4.53,4.53,0,1,1,4.53,4.53A4.536,4.536,0,0,1,42.747,28.476Z" transform="translate(-29.246 -10.471)" fill="#fff" stroke="#fff" stroke-width="1"/>
  </g>
</svg>
