<svg id="lock-icon" xmlns="http://www.w3.org/2000/svg" width="52.687" height="67.362" viewBox="0 0 52.687 67.362">
  <path id="Path_38" data-name="Path 38" d="M1.585,30.719H6.5V20.347A20.286,20.286,0,0,1,12.471,5.981v0a20.264,20.264,0,0,1,28.739,0l.005,0a20.286,20.286,0,0,1,5.974,14.367V30.719H51.1A1.59,1.59,0,0,1,52.687,32.3V65.778A1.59,1.59,0,0,1,51.1,67.362H1.585A1.59,1.59,0,0,1,0,65.778V32.3a1.59,1.59,0,0,1,1.585-1.585Zm12.816,0H39.283V20.234a12.416,12.416,0,0,0-3.652-8.788l0,0A12.438,12.438,0,0,0,14.4,20.234V30.719ZM26.943,49.035l2.511,11.588-6.884.029,2.02-11.744a4.669,4.669,0,1,1,2.352.127Z" fill-rule="evenodd"/>
</svg>
