<svg xmlns="http://www.w3.org/2000/svg" width="61.919" height="61.707" viewBox="0 0 61.919 61.707">
  <g id="Layer_2" data-name="Layer 2" transform="translate(2.008 2.016)">
    <path id="Path_42" data-name="Path 42" d="M28.381,36.265a48.113,48.113,0,0,0,7.089,9.96,40.95,40.95,0,0,0,11.262,8.317,1.2,1.2,0,0,0,.977,0,4.114,4.114,0,0,0,1.362-.977,16.4,16.4,0,0,0,1.228-1.48c1.82-2.383,4.055-5.328,7.222-3.848l.192.089,10.552,6.068h.089a4.78,4.78,0,0,1,1.983,4.114,11.085,11.085,0,0,1-1.48,5.224,10.685,10.685,0,0,1-5.076,4.44,22.732,22.732,0,0,1-6.26,1.7,21.341,21.341,0,0,1-9.56-.784,42.652,42.652,0,0,1-9.6-4.647L38.1,64.28c-1.569-.977-3.256-2.013-4.913-3.241A61.64,61.64,0,0,1,16.912,42.585c-3.359-6.1-5.209-12.683-4.2-18.973a13.615,13.615,0,0,1,4.617-8.628A12.254,12.254,0,0,1,26.5,12.527a1.347,1.347,0,0,1,1.066.681l6.763,11.44a3.567,3.567,0,0,1,.562,3.833,7.4,7.4,0,0,1-2.59,2.96c-.355.311-.784.622-1.243.947-1.48,1.1-3.241,2.368-2.649,3.863h0Z" transform="translate(-12.435 -12.413)" fill="none" stroke="#fff" stroke-width="4"/>
  </g>
</svg>
