<svg xmlns="http://www.w3.org/2000/svg" width="58.169" height="67.346" viewBox="0 0 58.169 67.346">
  <path id="secure-icon" d="M30.9,1.338A57.2,57.2,0,0,0,43.729,7.62a26.45,26.45,0,0,0,10.46,1.409l3.678-.334.181,3.695c.674,13.59-1.519,25.4-6.118,34.712-4.786,9.692-12.143,16.693-21.588,20.245H27.886c-9.232-3.371-16.534-10.18-21.38-19.993C1.984,38.143-.335,26.248.038,12.06l.1-3.646L3.76,8.6A35.441,35.441,0,0,0,15.475,7.4,33.215,33.215,0,0,0,26.817,1.529L28.785,0,30.9,1.338Zm-1.88,9.243c7.417,4.7,14.116,6.929,19.867,6.414,1,20.283-6.5,35.786-19.79,40.791C16.248,53.1,8.656,38.133,9.22,16.671a28.365,28.365,0,0,0,19.8-6.09ZM24.948,33.774a15.838,15.838,0,0,1,1.447,1.4,57.276,57.276,0,0,1,4.534-6.31c4.517-5.455,3.169-5.1,9.434-5.1l-.894.965A74.505,74.505,0,0,0,33,33.122a89.825,89.825,0,0,0-5.9,9.813l-.548,1.047-.5-1.063a25.858,25.858,0,0,0-3.339-5.411,18.31,18.31,0,0,0-4.249-3.9c.817-2.681,4.709-1.3,6.452.17ZM28.994,4.336c9.528,6.03,18.129,8.892,25.519,8.223C55.8,38.648,46.163,57.6,29.092,64.035,12.608,58.01,2.856,39.717,3.579,12.159A36.494,36.494,0,0,0,28.994,4.336Z" transform="translate(0.001)" fill-rule="evenodd"/>
</svg>
