<svg xmlns="http://www.w3.org/2000/svg" width="59.743" height="59.749" viewBox="0 0 59.743 59.749">
  <path id="_7117553871579156629" data-name="7117553871579156629" d="M56.318,29.221l2.112-2.112a4.481,4.481,0,1,0-6.337-6.337l-4.306,4.306V17.925L29.886,0H7.469A7.475,7.475,0,0,0,0,7.469V52.28a7.475,7.475,0,0,0,7.469,7.469H40.33A7.475,7.475,0,0,0,47.8,52.28V37.751l6.418-6.418,1.05,1.05L53.155,34.5a1.494,1.494,0,0,0,2.077,2.147l.035-.035,3.174-3.174a1.493,1.493,0,0,0,0-2.112ZM31.368,5.73l10.678,10.7h-6.2a4.482,4.482,0,0,1-4.481-4.481ZM44.811,52.28a4.482,4.482,0,0,1-4.481,4.481H7.469A4.482,4.482,0,0,1,2.987,52.28V7.469A4.482,4.482,0,0,1,7.469,2.987H28.381V11.95a7.475,7.475,0,0,0,7.469,7.469h8.962v8.647L30.971,41.894a4.447,4.447,0,0,0-.864,5.088l-.128.128c-1.61-1.727-3.186-2.486-4.773-2.287a5.126,5.126,0,0,0-3.162,1.96c-.548.6-.91.969-1.319,1.027-.175-.012-.642-.537-.922-.864a5.072,5.072,0,0,0-3.209-2.124c-1.949-.233-3.851.934-5.846,3.571A1.5,1.5,0,1,0,13.1,50.238l.035-.035c1.225-1.622,2.357-2.509,3.116-2.4.373.047.759.455,1.284,1.085A4.247,4.247,0,0,0,20.69,50.81c.128,0,.268-.012.4-.023a5.126,5.126,0,0,0,3.162-1.96c.56-.607.91-.969,1.319-1.027.747-.105,1.879.794,3.116,2.4a1.493,1.493,0,0,0,1.179.583H30a1.46,1.46,0,0,0,.98-.432l1.249-1.249a4.406,4.406,0,0,0,5.088-.864l7.515-7.5V52.28ZM35.2,46.118a1.493,1.493,0,0,1-2.112,0h0a1.493,1.493,0,0,1,0-2.112l16.9-16.9,2.112,2.112Zm19.01-19.01-.385-.385L52.093,25l2.112-2.112a1.754,1.754,0,0,1,.385-.268,1.305,1.305,0,0,1,.408-.14,1.908,1.908,0,0,1,.257-.023,1.06,1.06,0,0,1,.268.035,1.752,1.752,0,0,1,.49.175,1.487,1.487,0,0,1,.513,2.054,1.75,1.75,0,0,1-.222.292Zm-43.749-4.7a1.489,1.489,0,0,1,1.494-1.494h9.009a1.494,1.494,0,0,1,0,2.987H11.95a1.489,1.489,0,0,1-1.494-1.494Zm0,5.975a1.489,1.489,0,0,1,1.494-1.494H29.921a1.494,1.494,0,1,1,0,2.987H11.95A1.489,1.489,0,0,1,10.456,28.381Z"/>
</svg>
